<svg id="_030-delete" data-name="030-delete" xmlns="http://www.w3.org/2000/svg" xmlns:xlink="http://www.w3.org/1999/xlink" width="55" height="55" viewBox="0 0 55 55">
  <defs>
    <linearGradient id="linear-gradient" x1="0.5" y1="1" x2="0.5" gradientUnits="objectBoundingBox">
      <stop offset="0" stop-color="#fd3a84"/>
      <stop offset="1" stop-color="#ffa68d"/>
    </linearGradient>
    <linearGradient id="linear-gradient-2" x1="0.5" y1="1" x2="0.5" gradientUnits="objectBoundingBox">
      <stop offset="0" stop-color="#ffc2cc"/>
      <stop offset="1" stop-color="#fff2f4"/>
    </linearGradient>
  </defs>
  <g id="Gruppe_435" data-name="Gruppe 435" transform="translate(0 0)">
    <g id="Gruppe_434" data-name="Gruppe 434">
      <path id="Pfad_203" data-name="Pfad 203" d="M40.391,27.5a12.873,12.873,0,0,0-2.488.252l.754-1.82a1.613,1.613,0,0,0-.636-1.984l-2.746-1.714a16.018,16.018,0,0,0,.282-2.79,15.98,15.98,0,0,0-.267-2.638l2.731-1.7a1.612,1.612,0,0,0,.636-1.984L37.234,9.683a1.612,1.612,0,0,0-1.851-.954l-3.354.776a16.824,16.824,0,0,0-2.636-2.745l.762-3.3A1.613,1.613,0,0,0,29.2,1.613L25.772.125a1.6,1.6,0,0,0-1.983.634L22.122,3.494a16.006,16.006,0,0,0-2.679-.271,15.991,15.991,0,0,0-2.681.271L15.1.761A1.61,1.61,0,0,0,13.115.125L9.685,1.613a1.613,1.613,0,0,0-.954,1.852l.762,3.3A17.5,17.5,0,0,0,6.75,9.506L3.4,8.73a1.611,1.611,0,0,0-1.851.954L.123,13.117A1.612,1.612,0,0,0,.759,15.1l2.731,1.7a15.973,15.973,0,0,0-.267,2.639,16,16,0,0,0,.282,2.79L.759,23.947a1.612,1.612,0,0,0-.636,1.984l1.422,3.434a1.614,1.614,0,0,0,1.851.954l3.573-.8A16.15,16.15,0,0,0,9.506,32.03l-.775,3.356a1.612,1.612,0,0,0,.954,1.851l3.43,1.421a1.611,1.611,0,0,0,1.983-.634l1.708-2.732a16,16,0,0,0,2.638.267,15.982,15.982,0,0,0,2.64-.267l1.705,2.731a1.609,1.609,0,0,0,1.983.636l1.987-.823A12.977,12.977,0,0,0,40.391,53.389a12.944,12.944,0,1,0,0-25.889Z" transform="translate(0 0)" fill="url(#linear-gradient)"/>
    </g>
  </g>
  <g id="Gruppe_437" data-name="Gruppe 437" transform="translate(11.387 11.387)">
    <g id="Gruppe_436" data-name="Gruppe 436">
      <path id="Pfad_204" data-name="Pfad 204" d="M114.057,106a8.057,8.057,0,1,0,8.057,8.057A8.065,8.065,0,0,0,114.057,106ZM135,120.5a14.556,14.556,0,0,0,0,29.111,14.556,14.556,0,1,0,0-29.111Zm5.7,17.918a1.611,1.611,0,1,1-2.279,2.279L135,137.282l-3.418,3.417a1.611,1.611,0,0,1-2.279-2.279L132.725,135l-3.417-3.416a1.611,1.611,0,1,1,2.279-2.279L135,132.726l3.418-3.417a1.611,1.611,0,0,1,2.279,2.279L137.283,135Z" transform="translate(-106 -106)" fill="url(#linear-gradient-2)"/>
    </g>
  </g>
</svg>
