<svg xmlns="http://www.w3.org/2000/svg" xmlns:xlink="http://www.w3.org/1999/xlink" width="480.164" height="374.379" viewBox="0 0 480.164 374.379"><defs><style>.a{fill:#1f242a;}.b{fill:#282d32;}.c{fill:rgba(255,255,255,0.04);}.d{fill:none;}.e,.f{stroke:none;}.f{fill:#282d32;}.g{filter:url(#u);}.h{filter:url(#s);}.i{filter:url(#q);}.j{filter:url(#o);}.k{filter:url(#m);}.l{filter:url(#k);}.m{filter:url(#i);}.n{filter:url(#g);}.o{filter:url(#e);}.p{filter:url(#c);}.q{filter:url(#a);}</style><filter id="a" x="0" y="0" width="480.164" height="374.379" filterUnits="userSpaceOnUse"><feOffset dy="3" input="SourceAlpha"/><feGaussianBlur stdDeviation="35" result="b"/><feFlood flood-opacity="0.231"/><feComposite operator="in" in2="b"/><feComposite in="SourceGraphic"/></filter><filter id="c" x="109.927" y="124.255" width="40.4" height="40.423" filterUnits="userSpaceOnUse"><feOffset dy="10" input="SourceAlpha"/><feGaussianBlur stdDeviation="5" result="d"/><feFlood flood-opacity="0.329"/><feComposite operator="in" in2="d"/><feComposite in="SourceGraphic"/></filter><filter id="e" x="333.785" y="127.535" width="39.143" height="39.766" filterUnits="userSpaceOnUse"><feOffset dy="10" input="SourceAlpha"/><feGaussianBlur stdDeviation="5" result="f"/><feFlood flood-opacity="0.329"/><feComposite operator="in" in2="f"/><feComposite in="SourceGraphic"/></filter><filter id="g" x="333.785" y="212.756" width="39.143" height="39.841" filterUnits="userSpaceOnUse"><feOffset dy="10" input="SourceAlpha"/><feGaussianBlur stdDeviation="5" result="h"/><feFlood flood-opacity="0.329"/><feComposite operator="in" in2="h"/><feComposite in="SourceGraphic"/></filter><filter id="i" x="109.927" y="170.785" width="40.4" height="40.374" filterUnits="userSpaceOnUse"><feOffset dy="10" input="SourceAlpha"/><feGaussianBlur stdDeviation="5" result="j"/><feFlood flood-opacity="0.329"/><feComposite operator="in" in2="j"/><feComposite in="SourceGraphic"/></filter><filter id="k" x="109.927" y="216.177" width="40.4" height="40.506" filterUnits="userSpaceOnUse"><feOffset dy="10" input="SourceAlpha"/><feGaussianBlur stdDeviation="5" result="l"/><feFlood flood-opacity="0.329"/><feComposite operator="in" in2="l"/><feComposite in="SourceGraphic"/></filter><filter id="m" x="129.635" y="118.907" width="129.683" height="57.688" filterUnits="userSpaceOnUse"><feOffset dy="10" input="SourceAlpha"/><feGaussianBlur stdDeviation="5" result="n"/><feFlood flood-opacity="0.451"/><feComposite operator="in" in2="n"/><feComposite in="SourceGraphic"/></filter><filter id="o" x="129.635" y="164.869" width="129.683" height="57.371" filterUnits="userSpaceOnUse"><feOffset dy="10" input="SourceAlpha"/><feGaussianBlur stdDeviation="5" result="p"/><feFlood flood-opacity="0.451"/><feComposite operator="in" in2="p"/><feComposite in="SourceGraphic"/></filter><filter id="q" x="129.635" y="207.361" width="129.683" height="58.593" filterUnits="userSpaceOnUse"><feOffset dy="10" input="SourceAlpha"/><feGaussianBlur stdDeviation="5" result="r"/><feFlood flood-opacity="0.451"/><feComposite operator="in" in2="r"/><feComposite in="SourceGraphic"/></filter><filter id="s" x="96" y="92.359" width="288.236" height="26.938" filterUnits="userSpaceOnUse"><feOffset dy="3" input="SourceAlpha"/><feGaussianBlur stdDeviation="3" result="t"/><feFlood flood-opacity="0.161"/><feComposite operator="in" in2="t"/><feComposite in="SourceGraphic"/></filter><filter id="u" x="43.945" y="3.078" width="391.219" height="150.631" filterUnits="userSpaceOnUse"><feOffset dy="-3" input="SourceAlpha"/><feGaussianBlur stdDeviation="20" result="v"/><feFlood flood-opacity="0.161"/><feComposite operator="in" in2="v"/><feComposite in="SourceGraphic"/></filter></defs><g transform="translate(0 0)"><g class="q" transform="matrix(1, 0, 0, 1, 0, 0)"><path class="a" d="M105,102l270.164,4.814v148.21a4.118,4.118,0,0,1-.284,1.506,4.024,4.024,0,0,1-.774,1.245,3.759,3.759,0,0,1-1.149.857,3.477,3.477,0,0,1-1.408.342l-262.337,7.287a4.181,4.181,0,0,1-1.639-.281,4.069,4.069,0,0,1-1.339-.854A4.008,4.008,0,0,1,105,262.217Z" transform="translate(0 0)"/></g><g class="p" transform="matrix(1, 0, 0, 1, 0, 0)"><path class="b" d="M20.207,5.054a5.26,5.26,0,0,1,4.785,3.2,5.146,5.146,0,0,1,.407,2.012A5.086,5.086,0,0,1,23.881,13.9a5.155,5.155,0,0,1-3.673,1.484,5.261,5.261,0,0,1-4.8-3.195A5.146,5.146,0,0,1,15,10.173,5.086,5.086,0,0,1,16.527,6.53a5.155,5.155,0,0,1,3.681-1.477Z" transform="translate(109.93 124.26)"/></g><g class="o" transform="matrix(1, 0, 0, 1, 0, 0)"><path class="b" d="M19.578,5.046a4.361,4.361,0,0,1,1.779.4A4.631,4.631,0,0,1,22.807,6.5a4.934,4.934,0,0,1,.978,1.547,5.126,5.126,0,0,1,0,3.766,4.821,4.821,0,0,1-.978,1.53,4.52,4.52,0,0,1-1.451,1.026,4.316,4.316,0,0,1-1.779.368,4.36,4.36,0,0,1-1.78-.394,4.629,4.629,0,0,1-1.455-1.05,4.933,4.933,0,0,1-.982-1.549,5.126,5.126,0,0,1,0-3.775,4.82,4.82,0,0,1,.982-1.532A4.519,4.519,0,0,1,17.8,5.409,4.315,4.315,0,0,1,19.578,5.046Z" transform="translate(333.79 127.53)"/></g><g class="n" transform="matrix(1, 0, 0, 1, 0, 0)"><path class="b" d="M19.578,5.07a4.3,4.3,0,0,1,1.779.353,4.469,4.469,0,0,1,1.451,1.015,4.768,4.768,0,0,1,.978,1.522,5.031,5.031,0,0,1,.358,1.877,5.124,5.124,0,0,1-.358,1.889,4.989,4.989,0,0,1-.978,1.555,4.685,4.685,0,0,1-1.451,1.063,4.384,4.384,0,0,1-1.779.413,4.3,4.3,0,0,1-1.78-.348A4.467,4.467,0,0,1,16.342,13.4a4.767,4.767,0,0,1-.982-1.524A5.03,5.03,0,0,1,15,9.991,5.124,5.124,0,0,1,15.36,8.1a4.987,4.987,0,0,1,.982-1.557A4.683,4.683,0,0,1,17.8,5.478,4.383,4.383,0,0,1,19.578,5.07Z" transform="translate(333.79 212.76)"/></g><g class="m" transform="matrix(1, 0, 0, 1, 0, 0)"><path class="b" d="M20.207,5.014a5.179,5.179,0,0,1,3.673,1.5,5.137,5.137,0,0,1,1.112,5.652,5.218,5.218,0,0,1-8.465,1.683A5.137,5.137,0,0,1,15.41,8.186a5.226,5.226,0,0,1,4.8-3.172Z" transform="translate(109.93 170.79)"/></g><g class="l" transform="matrix(1, 0, 0, 1, 0, 0)"><path class="b" d="M20.207,5.08a5.165,5.165,0,0,1,2.023.375,5.057,5.057,0,0,1,3.169,4.7,5.17,5.17,0,0,1-.407,2.015,5.3,5.3,0,0,1-4.785,3.238,5.165,5.165,0,0,1-2.025-.369A5.057,5.057,0,0,1,15,10.333a5.17,5.17,0,0,1,.41-2.02,5.3,5.3,0,0,1,4.8-3.233Z" transform="translate(109.93 216.18)"/></g><g transform="translate(129.635 118.907)"><g class="k" transform="matrix(1, 0, 0, 1, -129.64, -118.91)"><path class="c" d="M18.092,5.037l93.664,1.112a2.877,2.877,0,0,1,1.14.249,2.976,2.976,0,0,1,.93.654,3.066,3.066,0,0,1,.857,2.132v20.5a3.05,3.05,0,0,1-.23,1.167,2.992,2.992,0,0,1-.627.951,2.91,2.91,0,0,1-.93.639,2.849,2.849,0,0,1-1.14.231l-93.664-.4A3.1,3.1,0,0,1,15,29.18V8.087a3.047,3.047,0,0,1,3.092-3.05Z" transform="translate(129.64 118.91)"/></g></g><g transform="translate(129.635 164.869)"><g class="j" transform="matrix(1, 0, 0, 1, -129.64, -164.87)"><path class="c" d="M18.092,5.1,111.756,5a2.855,2.855,0,0,1,1.14.235,2.923,2.923,0,0,1,.93.642,3.005,3.005,0,0,1,.627.953A3.056,3.056,0,0,1,114.683,8V28.5a3.056,3.056,0,0,1-.857,2.129,2.963,2.963,0,0,1-.93.651,2.871,2.871,0,0,1-1.14.246l-93.664.814A3.055,3.055,0,0,1,15,29.284V8.191A3.092,3.092,0,0,1,18.092,5.1Z" transform="translate(129.64 164.87)"/></g><g class="i" transform="matrix(1, 0, 0, 1, -129.64, -164.87)"><path class="c" d="M18.092,6.285l93.664-1.246a2.835,2.835,0,0,1,1.14.221,2.874,2.874,0,0,1,.93.631,2.955,2.955,0,0,1,.627.945A3.034,3.034,0,0,1,114.683,8V28.5a3.093,3.093,0,0,1-.857,2.139,3.014,3.014,0,0,1-.93.663,2.894,2.894,0,0,1-1.14.26L18.092,33.528a3.05,3.05,0,0,1-1.2-.217A3.01,3.01,0,0,1,15,30.506V9.413a3.1,3.1,0,0,1,.243-1.2,3.161,3.161,0,0,1,1.646-1.665A3.11,3.11,0,0,1,18.092,6.285Z" transform="translate(129.64 207.36)"/></g></g><g class="h" transform="matrix(1, 0, 0, 1, 0, 0)"><g class="d" transform="translate(96 92.36)"><path class="e" d="M9,8.081l270.236,4.933"/><path class="f" d="M 279.23583984375 14.93810653686523 L 9.000029563903809 10.16145896911621 L 9.000029563903809 5.99997615814209 L 279.23583984375 11.08856773376465 L 279.23583984375 14.93810653686523 Z"/></g></g></g><g class="g" transform="matrix(1, 0, 0, 1, 0, 0)"><path class="a" d="M63.163,63.088l265.347,7.37a2.606,2.606,0,0,1,1.055.256,2.82,2.82,0,0,1,.861.643,3.02,3.02,0,0,1,.58.934,3.089,3.089,0,0,1,.213,1.13V90.744a3.008,3.008,0,0,1-.213,1.119,2.829,2.829,0,0,1-.58.906,2.634,2.634,0,0,1-.861.6,2.529,2.529,0,0,1-1.055.205L63.163,88.042a3.228,3.228,0,0,1-1.231-.271,3.264,3.264,0,0,1-1.005-.69,3.217,3.217,0,0,1-.678-1.007A3.114,3.114,0,0,1,60,84.854V66.122A3.023,3.023,0,0,1,61.932,63.3,3.141,3.141,0,0,1,63.163,63.088Z" transform="translate(43.95 3.08)"/></g></svg>