<svg xmlns="http://www.w3.org/2000/svg" xmlns:xlink="http://www.w3.org/1999/xlink" width="503.197" height="334.086" viewBox="0 0 503.197 334.086"><defs><style>.a{fill:#1f242a;}.b{fill:#282d32;}.c{fill:rgba(255,255,255,0.04);}.d{fill:none;}.e,.f{stroke:none;}.f{fill:#282d32;}.g{filter:url(#s);}.h{filter:url(#q);}.i{filter:url(#o);}.j{filter:url(#m);}.k{filter:url(#k);}.l{filter:url(#i);}.m{filter:url(#g);}.n{filter:url(#e);}.o{filter:url(#c);}.p{filter:url(#a);}</style><filter id="a" x="0" y="0" width="503.197" height="334.086" filterUnits="userSpaceOnUse"><feOffset dy="3" input="SourceAlpha"/><feGaussianBlur stdDeviation="35" result="b"/><feFlood flood-opacity="0.231"/><feComposite operator="in" in2="b"/><feComposite in="SourceGraphic"/></filter><filter id="c" x="112.482" y="116.848" width="40.1" height="39.68" filterUnits="userSpaceOnUse"><feOffset dy="10" input="SourceAlpha"/><feGaussianBlur stdDeviation="5" result="d"/><feFlood flood-opacity="0.329"/><feComposite operator="in" in2="d"/><feComposite in="SourceGraphic"/></filter><filter id="e" x="351.686" y="117.097" width="40.29" height="39.887" filterUnits="userSpaceOnUse"><feOffset dy="10" input="SourceAlpha"/><feGaussianBlur stdDeviation="5" result="f"/><feFlood flood-opacity="0.329"/><feComposite operator="in" in2="f"/><feComposite in="SourceGraphic"/></filter><filter id="g" x="352.59" y="184.723" width="40.447" height="40.212" filterUnits="userSpaceOnUse"><feOffset dy="10" input="SourceAlpha"/><feGaussianBlur stdDeviation="5" result="h"/><feFlood flood-opacity="0.329"/><feComposite operator="in" in2="h"/><feComposite in="SourceGraphic"/></filter><filter id="i" x="111.152" y="150.467" width="40.177" height="39.821" filterUnits="userSpaceOnUse"><feOffset dy="10" input="SourceAlpha"/><feGaussianBlur stdDeviation="5" result="j"/><feFlood flood-opacity="0.329"/><feComposite operator="in" in2="j"/><feComposite in="SourceGraphic"/></filter><filter id="k" x="109.832" y="183.805" width="40.253" height="39.994" filterUnits="userSpaceOnUse"><feOffset dy="10" input="SourceAlpha"/><feGaussianBlur stdDeviation="5" result="l"/><feFlood flood-opacity="0.329"/><feComposite operator="in" in2="l"/><feComposite in="SourceGraphic"/></filter><filter id="m" x="129.808" y="123.232" width="132.983" height="56.038" filterUnits="userSpaceOnUse"><feOffset dy="10" input="SourceAlpha"/><feGaussianBlur stdDeviation="5" result="n"/><feFlood flood-opacity="0.451"/><feComposite operator="in" in2="n"/><feComposite in="SourceGraphic"/></filter><filter id="o" x="128.384" y="164.068" width="133.911" height="56.723" filterUnits="userSpaceOnUse"><feOffset dy="10" input="SourceAlpha"/><feGaussianBlur stdDeviation="5" result="p"/><feFlood flood-opacity="0.451"/><feComposite operator="in" in2="p"/><feComposite in="SourceGraphic"/></filter><filter id="q" x="101.24" y="92.579" width="303.58" height="22.981" filterUnits="userSpaceOnUse"><feOffset dy="3" input="SourceAlpha"/><feGaussianBlur stdDeviation="3" result="r"/><feFlood flood-opacity="0.161"/><feComposite operator="in" in2="r"/><feComposite in="SourceGraphic"/></filter><filter id="s" x="49.734" y="5.502" width="405.792" height="144.586" filterUnits="userSpaceOnUse"><feOffset dy="-3" input="SourceAlpha"/><feGaussianBlur stdDeviation="20" result="t"/><feFlood flood-opacity="0.161"/><feComposite operator="in" in2="t"/><feComposite in="SourceGraphic"/></filter></defs><g transform="translate(0 0)"><g class="p" transform="matrix(1, 0, 0, 1, 0, 0)"><path class="a" d="M110.26,103.082,395.73,102l2.385,119.958a4,4,0,0,1-2.468,3.786,4.117,4.117,0,0,1-1.614.313l-285.074-1.972a3.809,3.809,0,0,1-1.528-.327,3.768,3.768,0,0,1-1.221-.871,3.84,3.84,0,0,1-.793-1.284,3.988,3.988,0,0,1-.243-1.567Z" transform="translate(0 0)"/></g><g class="o" transform="matrix(1, 0, 0, 1, 0, 0)"><path class="b" d="M20.238,5.01a4.767,4.767,0,0,1,1.878.375,4.6,4.6,0,0,1,2.492,2.563,4.688,4.688,0,0,1,.312,1.88,4.91,4.91,0,0,1-.453,1.883,5.152,5.152,0,0,1-2.689,2.579,4.991,4.991,0,0,1-1.91.383,4.767,4.767,0,0,1-1.881-.378A4.6,4.6,0,0,1,15.5,11.726a4.689,4.689,0,0,1-.308-1.88,4.911,4.911,0,0,1,.456-1.88,5.152,5.152,0,0,1,2.686-2.572A4.991,4.991,0,0,1,20.238,5.01Z" transform="translate(112.48 116.85)"/></g><g class="n" transform="matrix(1, 0, 0, 1, 0, 0)"><path class="b" d="M20.066,5.01a5.2,5.2,0,0,1,3.607,1.436,5.028,5.028,0,0,1,1.112,1.565,4.843,4.843,0,0,1,.429,1.92,4.769,4.769,0,0,1-.369,1.923,4.851,4.851,0,0,1-1.064,1.573,5,5,0,0,1-1.6,1.062,5.142,5.142,0,0,1-1.971.391,5.2,5.2,0,0,1-3.61-1.443,5.027,5.027,0,0,1-1.108-1.569,4.842,4.842,0,0,1-.424-1.92,4.769,4.769,0,0,1,.373-1.92A4.851,4.851,0,0,1,16.5,6.46,5,5,0,0,1,18.1,5.4,5.142,5.142,0,0,1,20.066,5.01Z" transform="translate(351.69 117.1)"/></g><g class="m" transform="matrix(1, 0, 0, 1, 0, 0)"><path class="b" d="M20.142,5.019a5.271,5.271,0,0,1,4.79,3.12,5.069,5.069,0,0,1,.436,1.981,4.942,4.942,0,0,1-1.454,3.593A5.031,5.031,0,0,1,22.29,14.8a5.136,5.136,0,0,1-2,.391,5.271,5.271,0,0,1-4.79-3.131,5.069,5.069,0,0,1-.431-1.981,4.942,4.942,0,0,1,1.458-3.585,5.032,5.032,0,0,1,1.62-1.081A5.136,5.136,0,0,1,20.142,5.019Z" transform="translate(352.59 184.72)"/></g><g class="l" transform="matrix(1, 0, 0, 1, 0, 0)"><path class="b" d="M20.279,5a4.778,4.778,0,0,1,1.891.386A4.667,4.667,0,0,1,24.68,8a4.8,4.8,0,0,1,.314,1.909,5.006,5.006,0,0,1-.457,1.91,5.187,5.187,0,0,1-2.71,2.61,4.987,4.987,0,0,1-1.924.383,4.778,4.778,0,0,1-1.894-.389A4.667,4.667,0,0,1,15.5,11.806a4.8,4.8,0,0,1-.31-1.909,5.007,5.007,0,0,1,.46-1.907,5.187,5.187,0,0,1,2.706-2.6A4.987,4.987,0,0,1,20.279,5Z" transform="translate(111.15 150.47)"/></g><g class="k" transform="matrix(1, 0, 0, 1, 0, 0)"><path class="b" d="M20.32,5.019a4.789,4.789,0,0,1,1.9.4,4.714,4.714,0,0,1,1.528,1.071,4.762,4.762,0,0,1,1,1.585,4.907,4.907,0,0,1,.316,1.939,5.1,5.1,0,0,1-.461,1.937,5.223,5.223,0,0,1-2.73,2.641,4.982,4.982,0,0,1-1.938.383,4.789,4.789,0,0,1-1.908-.4A4.714,4.714,0,0,1,16.5,13.495a4.762,4.762,0,0,1-1-1.588A4.909,4.909,0,0,1,15.2,9.969a5.1,5.1,0,0,1,.464-1.934A5.222,5.222,0,0,1,18.387,5.4,4.983,4.983,0,0,1,20.32,5.019Z" transform="translate(109.83 183.8)"/></g><g transform="translate(129.808 123.232)"><g class="j" transform="matrix(1, 0, 0, 1, -129.81, -123.23)"><path class="c" d="M18.841,5.153,115,5a2.986,2.986,0,0,1,1.156.228,2.928,2.928,0,0,1,.939.627,2.859,2.859,0,0,1,.846,2.073l-.26,20.142a2.945,2.945,0,0,1-.25,1.153,3.017,3.017,0,0,1-.654.941,3.04,3.04,0,0,1-2.13.867l-96.707-.071a2.883,2.883,0,0,1-1.138-.232,2.809,2.809,0,0,1-1.511-1.564,2.866,2.866,0,0,1-.191-1.143l.707-19.962a2.948,2.948,0,0,1,.27-1.132,3.085,3.085,0,0,1,1.613-1.549A3,3,0,0,1,18.841,5.153Z" transform="translate(129.81 123.23)"/></g></g><g transform="translate(128.383 164.068)"><g class="i" transform="matrix(1, 0, 0, 1, -128.38, -164.07)"><path class="c" d="M18.884,5.006l97.022.2a2.974,2.974,0,0,1,2.114.878,2.935,2.935,0,0,1,.854,2.114l-.264,20.51a3.016,3.016,0,0,1-.253,1.173,3.052,3.052,0,0,1-2.809,1.831L17.97,31.285a2.891,2.891,0,0,1-1.148-.24,2.862,2.862,0,0,1-1.524-1.6,2.948,2.948,0,0,1-.192-1.164l.72-20.323A3.018,3.018,0,0,1,16.1,6.807a3.111,3.111,0,0,1,1.627-1.571A3,3,0,0,1,18.884,5.006Z" transform="translate(128.38 164.07)"/></g></g><g class="h" transform="matrix(1, 0, 0, 1, 0, 0)"><g class="d" transform="translate(101.24 92.58)"><path class="e" d="M9.083,9.073,294.541,7.954"/><path class="f" d="M 294.5798645019531 9.910411834716797 L 8.999819755554199 10.9811487197876 L 9.165712356567383 7.166133403778076 L 294.5020446777344 5.999998569488525 L 294.5798645019531 9.910411834716797 Z"/></g></g></g><g class="g" transform="matrix(1, 0, 0, 1, 0, 0)"><path class="a" d="M63.863,64.881,342.314,63.02a3.141,3.141,0,0,1,1.178.219,3.085,3.085,0,0,1,.971.613,2.948,2.948,0,0,1,.665.915,2.806,2.806,0,0,1,.26,1.125l.347,17.437a2.791,2.791,0,0,1-.216,1.137,2.86,2.86,0,0,1-.631.931,2.984,2.984,0,0,1-.951.63,3.1,3.1,0,0,1-1.176.235L62.886,87.573a2.83,2.83,0,0,1-1.114-.219,2.707,2.707,0,0,1-.891-.606,2.669,2.669,0,0,1-.579-.9,2.736,2.736,0,0,1-.178-1.107l.744-17.015a2.865,2.865,0,0,1,.274-1.1,3.03,3.03,0,0,1,.655-.9,3.082,3.082,0,0,1,.939-.611A2.991,2.991,0,0,1,63.863,64.881Z" transform="translate(49.73 5.5)"/></g></svg>