<svg xmlns="http://www.w3.org/2000/svg" xmlns:xlink="http://www.w3.org/1999/xlink" width="413.069" height="500.086" viewBox="0 0 413.069 500.086"><defs><style>.a{fill:#1f242a;}.b{fill:#282d32;}.c{fill:rgba(255,255,255,0.04);}.d{fill:none;}.e,.f{stroke:none;}.f{fill:#282d32;}.g{filter:url(#u);}.h{filter:url(#s);}.i{filter:url(#q);}.j{filter:url(#o);}.k{filter:url(#m);}.l{filter:url(#k);}.m{filter:url(#i);}.n{filter:url(#g);}.o{filter:url(#e);}.p{filter:url(#c);}.q{filter:url(#a);}</style><filter id="a" x="0" y="0" width="413.069" height="500.086" filterUnits="userSpaceOnUse"><feOffset dy="3" input="SourceAlpha"/><feGaussianBlur stdDeviation="35" result="b"/><feFlood flood-opacity="0.231"/><feComposite operator="in" in2="b"/><feComposite in="SourceGraphic"/></filter><filter id="c" x="108.654" y="148.439" width="39.842" height="39.995" filterUnits="userSpaceOnUse"><feOffset dy="10" input="SourceAlpha"/><feGaussianBlur stdDeviation="5" result="d"/><feFlood flood-opacity="0.329"/><feComposite operator="in" in2="d"/><feComposite in="SourceGraphic"/></filter><filter id="e" x="263.692" y="149.278" width="40.113" height="40.13" filterUnits="userSpaceOnUse"><feOffset dy="10" input="SourceAlpha"/><feGaussianBlur stdDeviation="5" result="f"/><feFlood flood-opacity="0.329"/><feComposite operator="in" in2="f"/><feComposite in="SourceGraphic"/></filter><filter id="g" x="263.692" y="314.627" width="40.113" height="40.152" filterUnits="userSpaceOnUse"><feOffset dy="10" input="SourceAlpha"/><feGaussianBlur stdDeviation="5" result="h"/><feFlood flood-opacity="0.329"/><feComposite operator="in" in2="h"/><feComposite in="SourceGraphic"/></filter><filter id="i" x="108.654" y="231.887" width="39.842" height="39.944" filterUnits="userSpaceOnUse"><feOffset dy="10" input="SourceAlpha"/><feGaussianBlur stdDeviation="5" result="j"/><feFlood flood-opacity="0.329"/><feComposite operator="in" in2="j"/><feComposite in="SourceGraphic"/></filter><filter id="k" x="108.654" y="313.415" width="39.842" height="40.014" filterUnits="userSpaceOnUse"><feOffset dy="10" input="SourceAlpha"/><feGaussianBlur stdDeviation="5" result="l"/><feFlood flood-opacity="0.329"/><feComposite operator="in" in2="l"/><feComposite in="SourceGraphic"/></filter><filter id="m" x="127.369" y="219.943" width="102.557" height="56.523" filterUnits="userSpaceOnUse"><feOffset dy="10" input="SourceAlpha"/><feGaussianBlur stdDeviation="5" result="n"/><feFlood flood-opacity="0.451"/><feComposite operator="in" in2="n"/><feComposite in="SourceGraphic"/></filter><filter id="o" x="127.369" y="305.984" width="102.557" height="57.041" filterUnits="userSpaceOnUse"><feOffset dy="10" input="SourceAlpha"/><feGaussianBlur stdDeviation="5" result="p"/><feFlood flood-opacity="0.451"/><feComposite operator="in" in2="p"/><feComposite in="SourceGraphic"/></filter><filter id="q" x="127.369" y="143.106" width="102.557" height="56.871" filterUnits="userSpaceOnUse"><feOffset dy="10" input="SourceAlpha"/><feGaussianBlur stdDeviation="5" result="r"/><feFlood flood-opacity="0.451"/><feComposite operator="in" in2="r"/><feComposite in="SourceGraphic"/></filter><filter id="s" x="96" y="92.468" width="221.149" height="24.273" filterUnits="userSpaceOnUse"><feOffset dy="3" input="SourceAlpha"/><feGaussianBlur stdDeviation="3" result="t"/><feFlood flood-opacity="0.161"/><feComposite operator="in" in2="t"/><feComposite in="SourceGraphic"/></filter><filter id="u" x="44.02" y="4.19" width="324.049" height="146.659" filterUnits="userSpaceOnUse"><feOffset dy="-3" input="SourceAlpha"/><feGaussianBlur stdDeviation="20" result="v"/><feFlood flood-opacity="0.161"/><feComposite operator="in" in2="v"/><feComposite in="SourceGraphic"/></filter></defs><g transform="translate(0 0)"><g class="q" transform="matrix(1, 0, 0, 1, 0, 0)"><path class="a" d="M105,104.245,308.069,102V388.05a3.972,3.972,0,0,1-2.481,3.684,4.038,4.038,0,0,1-1.58.295l-195.086-2.745a3.906,3.906,0,0,1-1.527-.333,4,4,0,0,1-1.247-.867,4.031,4.031,0,0,1-1.148-2.82Z" transform="translate(0 0)"/></g><g class="p" transform="matrix(1, 0, 0, 1, 0, 0)"><path class="b" d="M19.919,5.033A4.853,4.853,0,0,1,23.4,6.465a4.943,4.943,0,0,1,1.442,3.5,5.006,5.006,0,0,1-3.007,4.6,4.868,4.868,0,0,1-5.395-1.032A4.943,4.943,0,0,1,15,10.03a5.006,5.006,0,0,1,3-4.594A4.885,4.885,0,0,1,19.919,5.033Z" transform="translate(108.65 148.44)"/></g><g class="o" transform="matrix(1, 0, 0, 1, 0, 0)"><path class="b" d="M20.054,5.033a5.02,5.02,0,0,1,4.661,3.046,5.03,5.03,0,0,1,0,3.921,5.093,5.093,0,0,1-6.629,2.718A5.01,5.01,0,0,1,15.4,8.137a5.092,5.092,0,0,1,4.657-3.1Z" transform="translate(263.69 149.28)"/></g><g class="n" transform="matrix(1, 0, 0, 1, 0, 0)"><path class="b" d="M20.054,5.04a5.113,5.113,0,0,1,4.661,3.112,5,5,0,0,1-4.661,6.956A5.113,5.113,0,0,1,15.4,11.994,5,5,0,0,1,20.054,5.04Z" transform="translate(263.69 314.63)"/></g><g class="m" transform="matrix(1, 0, 0, 1, 0, 0)"><path class="b" d="M19.919,5a4.87,4.87,0,0,1,1.916.392A4.934,4.934,0,0,1,23.4,6.46a4.991,4.991,0,0,1,0,7.026,4.92,4.92,0,0,1-1.565,1.062A4.9,4.9,0,0,1,18,14.543a4.934,4.934,0,0,1-1.564-1.066,4.991,4.991,0,0,1,0-7.022A4.92,4.92,0,0,1,18,5.392,4.864,4.864,0,0,1,19.919,5Z" transform="translate(108.65 231.89)"/></g><g class="l" transform="matrix(1, 0, 0, 1, 0, 0)"><path class="b" d="M19.919,5.038a4.891,4.891,0,0,1,1.916.405A4.983,4.983,0,0,1,23.4,6.521a5.015,5.015,0,0,1,1.442,3.525,4.933,4.933,0,0,1-1.442,3.5A4.878,4.878,0,0,1,18,14.565a4.983,4.983,0,0,1-1.564-1.078A5.015,5.015,0,0,1,15,9.964a4.933,4.933,0,0,1,1.44-3.5,4.843,4.843,0,0,1,3.479-1.427Z" transform="translate(108.65 313.42)"/></g><g transform="translate(127.369 219.942)"><g class="k" transform="matrix(1, 0, 0, 1, -127.37, -219.94)"><path class="c" d="M17.961,5.029,84.56,5a3,3,0,0,1,3,3V28.52a2.989,2.989,0,0,1-3,3l-66.6-.127a2.935,2.935,0,0,1-1.153-.237A2.991,2.991,0,0,1,15,28.4V8.013a2.985,2.985,0,0,1,1.808-2.75A2.933,2.933,0,0,1,17.961,5.029Z" transform="translate(127.37 219.94)"/></g></g><g transform="translate(127.369 143.106)"><g class="j" transform="matrix(1, 0, 0, 1, -127.37, -143.11)"><path class="c" d="M17.961,5.021l66.6.476a3,3,0,0,1,1.166.244,3.026,3.026,0,0,1,1.831,2.78V29.039a2.964,2.964,0,0,1-3,2.974l-66.6-.63a2.949,2.949,0,0,1-1.153-.245A3.017,3.017,0,0,1,15,28.371V7.984a2.964,2.964,0,0,1,.867-2.1,2.919,2.919,0,0,1,2.094-.859Z" transform="translate(127.37 305.98)"/></g><g class="i" transform="matrix(1, 0, 0, 1, -127.37, -143.11)"><path class="c" d="M17.961,5.5l66.6-.474a2.974,2.974,0,0,1,3,2.981V28.52a3.013,3.013,0,0,1-3,3.017l-66.6.32a2.926,2.926,0,0,1-2.094-.864A2.971,2.971,0,0,1,15,28.888V8.5a3.011,3.011,0,0,1,1.808-2.762A2.945,2.945,0,0,1,17.961,5.5Z" transform="translate(127.37 143.11)"/></g></g><g class="h" transform="matrix(1, 0, 0, 1, 0, 0)"><g class="d" transform="translate(96 92.47)"><path class="e" d="M9,10.291,212.149,8.018"/><path class="f" d="M 212.1492614746094 10.0360107421875 L 8.99997615814209 12.27338981628418 L 8.99997615814209 8.308414459228516 L 212.1492614746094 6.000007152557373 L 212.1492614746094 10.0360107421875 Z"/></g></g></g><g class="g" transform="matrix(1, 0, 0, 1, 0, 0)"><path class="a" d="M62.941,65.83,261,63.043a3.029,3.029,0,0,1,1.185.221,2.973,2.973,0,0,1,1.86,2.763V84.189a3.021,3.021,0,0,1-.239,1.181A3.089,3.089,0,0,1,261,87.252L62.941,89.624a2.881,2.881,0,0,1-2.08-.846,2.932,2.932,0,0,1-.63-.938A2.972,2.972,0,0,1,60,86.686V68.845a3.026,3.026,0,0,1,1.8-2.765A2.929,2.929,0,0,1,62.941,65.83Z" transform="translate(44.02 4.19)"/></g></svg>