<svg id="floating_node_left_1" xmlns="http://www.w3.org/2000/svg" xmlns:xlink="http://www.w3.org/1999/xlink" width="347.342" height="277.101" viewBox="0 0 347.342 277.101">
  <defs>
    <filter id="Rechteck_36" x="0" y="0" width="347.342" height="277.101" filterUnits="userSpaceOnUse">
      <feOffset dy="3" input="SourceAlpha"/>
      <feGaussianBlur stdDeviation="35" result="blur"/>
      <feFlood flood-opacity="0.231"/>
      <feComposite operator="in" in2="blur"/>
      <feComposite in="SourceGraphic"/>
    </filter>
    <filter id="Ellipse_7" x="110.385" y="106.713" width="40.399" height="39.571" filterUnits="userSpaceOnUse">
      <feOffset dy="10" input="SourceAlpha"/>
      <feGaussianBlur stdDeviation="5" result="blur-2"/>
      <feFlood flood-opacity="0.329"/>
      <feComposite operator="in" in2="blur-2"/>
      <feComposite in="SourceGraphic"/>
    </filter>
    <filter id="Ellipse_8" x="197.742" y="107.244" width="40.398" height="39.404" filterUnits="userSpaceOnUse">
      <feOffset dy="10" input="SourceAlpha"/>
      <feGaussianBlur stdDeviation="5" result="blur-3"/>
      <feFlood flood-opacity="0.329"/>
      <feComposite operator="in" in2="blur-3"/>
      <feComposite in="SourceGraphic"/>
    </filter>
    <filter id="Ellipse_9" x="195.351" y="141.423" width="40.243" height="39.185" filterUnits="userSpaceOnUse">
      <feOffset dy="10" input="SourceAlpha"/>
      <feGaussianBlur stdDeviation="5" result="blur-4"/>
      <feFlood flood-opacity="0.329"/>
      <feComposite operator="in" in2="blur-4"/>
      <feComposite in="SourceGraphic"/>
    </filter>
    <filter id="Ellipse_10" x="109.794" y="124.636" width="40.319" height="39.446" filterUnits="userSpaceOnUse">
      <feOffset dy="10" input="SourceAlpha"/>
      <feGaussianBlur stdDeviation="5" result="blur-5"/>
      <feFlood flood-opacity="0.329"/>
      <feComposite operator="in" in2="blur-5"/>
      <feComposite in="SourceGraphic"/>
    </filter>
    <filter id="Ellipse_11" x="109.224" y="141.884" width="40.242" height="39.342" filterUnits="userSpaceOnUse">
      <feOffset dy="10" input="SourceAlpha"/>
      <feGaussianBlur stdDeviation="5" result="blur-6"/>
      <feFlood flood-opacity="0.329"/>
      <feComposite operator="in" in2="blur-6"/>
      <feComposite in="SourceGraphic"/>
    </filter>
    <filter id="Rechteck_31" x="128.859" y="114.406" width="79.039" height="43.712" filterUnits="userSpaceOnUse">
      <feOffset dy="10" input="SourceAlpha"/>
      <feGaussianBlur stdDeviation="5" result="blur-7"/>
      <feFlood flood-opacity="0.451"/>
      <feComposite operator="in" in2="blur-7"/>
      <feComposite in="SourceGraphic"/>
    </filter>
    <filter id="Rechteck_31-2" x="128.023" y="136.768" width="78.57" height="43.546" filterUnits="userSpaceOnUse">
      <feOffset dy="10" input="SourceAlpha"/>
      <feGaussianBlur stdDeviation="5" result="blur-8"/>
      <feFlood flood-opacity="0.451"/>
      <feComposite operator="in" in2="blur-8"/>
      <feComposite in="SourceGraphic"/>
    </filter>
    <filter id="Linie_6" x="97.668" y="92.591" width="154.024" height="22.35" filterUnits="userSpaceOnUse">
      <feOffset dy="3" input="SourceAlpha"/>
      <feGaussianBlur stdDeviation="3" result="blur-9"/>
      <feFlood flood-opacity="0.161"/>
      <feComposite operator="in" in2="blur-9"/>
      <feComposite in="SourceGraphic"/>
    </filter>
    <filter id="Rechteck_42" x="45.911" y="4.952" width="259.157" height="144.533" filterUnits="userSpaceOnUse">
      <feOffset dy="-3" input="SourceAlpha"/>
      <feGaussianBlur stdDeviation="20" result="blur-10"/>
      <feFlood flood-opacity="0.161"/>
      <feComposite operator="in" in2="blur-10"/>
      <feComposite in="SourceGraphic"/>
    </filter>
  </defs>
  <g id="Gruppe_12" data-name="Gruppe 12" transform="translate(0 0)">
    <g transform="matrix(1, 0, 0, 1, 0, 0)" filter="url(#Rechteck_36)">
      <path id="Rechteck_36-2" data-name="Rechteck 36" d="M106.681,102l135.662.467-5.084,61.772a3.653,3.653,0,0,1-.412,1.4,4.084,4.084,0,0,1-.9,1.147,4.289,4.289,0,0,1-1.262.78,4.143,4.143,0,0,1-1.492.3l-124.219,1.2a4.154,4.154,0,0,1-1.537-.274,3.825,3.825,0,0,1-1.242-.775,3.507,3.507,0,0,1-.822-1.161,3.369,3.369,0,0,1-.277-1.431Z" transform="translate(0 0)" fill="#1f242a"/>
    </g>
    <g transform="matrix(1, 0, 0, 1, 0, 0)" filter="url(#Ellipse_7)">
      <path id="Ellipse_7-2" data-name="Ellipse 7" d="M20.363,5.008a5.14,5.14,0,0,1,1.948.38,4.827,4.827,0,0,1,1.562,1.03,4.558,4.558,0,0,1,1.021,1.523A4.476,4.476,0,0,1,25.22,9.8a4.668,4.668,0,0,1-.464,1.858,5.024,5.024,0,0,1-1.131,1.515,5.327,5.327,0,0,1-3.6,1.4,5.143,5.143,0,0,1-1.942-.374,4.83,4.83,0,0,1-1.563-1.022,4.56,4.56,0,0,1-1.028-1.518A4.475,4.475,0,0,1,15.159,9.8a4.665,4.665,0,0,1,.458-1.864,5.022,5.022,0,0,1,1.132-1.523,5.327,5.327,0,0,1,3.614-1.4Z" transform="translate(110.38 106.71)" fill="#282d32"/>
    </g>
    <g transform="matrix(1, 0, 0, 1, 0, 0)" filter="url(#Ellipse_8)">
      <path id="Ellipse_8-2" data-name="Ellipse 8" d="M20.535,5.007A4.787,4.787,0,0,1,22.4,5.38a4.42,4.42,0,0,1,1.471,1.011,4.261,4.261,0,0,1,.93,1.5,4.39,4.39,0,0,1,.245,1.828,4.78,4.78,0,0,1-.517,1.825,5.2,5.2,0,0,1-1.149,1.489,5.374,5.374,0,0,1-1.614,1,5.191,5.191,0,0,1-1.914.368,4.79,4.79,0,0,1-1.862-.367,4.423,4.423,0,0,1-1.472-1,4.262,4.262,0,0,1-.936-1.491,4.387,4.387,0,0,1-.254-1.829,4.777,4.777,0,0,1,.512-1.831,5.2,5.2,0,0,1,1.15-1.5,5.374,5.374,0,0,1,1.621-1.008A5.19,5.19,0,0,1,20.535,5.007Z" transform="translate(197.74 107.24)" fill="#282d32"/>
    </g>
    <g transform="matrix(1, 0, 0, 1, 0, 0)" filter="url(#Ellipse_9)">
      <path id="Ellipse_9-2" data-name="Ellipse 9" d="M20.447,5.026a4.769,4.769,0,0,1,1.841.35,4.327,4.327,0,0,1,1.451.972,4.1,4.1,0,0,1,.919,1.446A4.192,4.192,0,0,1,24.9,9.567a4.607,4.607,0,0,1-.508,1.775A5.1,5.1,0,0,1,23.263,12.8a5.353,5.353,0,0,1-1.591.985,5.205,5.205,0,0,1-1.887.37,4.773,4.773,0,0,1-1.836-.344,4.331,4.331,0,0,1-1.452-.964,4.1,4.1,0,0,1-.925-1.441,4.189,4.189,0,0,1-.252-1.774,4.6,4.6,0,0,1,.5-1.781,5.1,5.1,0,0,1,1.132-1.46,5.353,5.353,0,0,1,1.6-.99A5.2,5.2,0,0,1,20.447,5.026Z" transform="translate(195.35 141.42)" fill="#282d32"/>
    </g>
    <g transform="matrix(1, 0, 0, 1, 0, 0)" filter="url(#Ellipse_10)">
      <path id="Ellipse_10-2" data-name="Ellipse 10" d="M20.321,5.01a5.128,5.128,0,0,1,1.933.368,4.773,4.773,0,0,1,1.551,1.009,4.466,4.466,0,0,1,1.014,1.5,4.37,4.37,0,0,1,.323,1.832,4.578,4.578,0,0,1-.46,1.831,4.974,4.974,0,0,1-1.123,1.5,5.292,5.292,0,0,1-1.62,1.011,5.349,5.349,0,0,1-1.952.376,5.131,5.131,0,0,1-1.928-.361,4.777,4.777,0,0,1-1.552-1,4.469,4.469,0,0,1-1.02-1.491,4.369,4.369,0,0,1-.332-1.832,4.576,4.576,0,0,1,.454-1.837,4.971,4.971,0,0,1,1.123-1.5A5.291,5.291,0,0,1,18.36,5.385,5.348,5.348,0,0,1,20.321,5.01Z" transform="translate(109.79 124.64)" fill="#282d32"/>
    </g>
    <g transform="matrix(1, 0, 0, 1, 0, 0)" filter="url(#Ellipse_11)">
      <path id="Ellipse_11-2" data-name="Ellipse 11" d="M20.28,5.027a5.117,5.117,0,0,1,1.919.356,4.722,4.722,0,0,1,1.54.988,4.38,4.38,0,0,1,1.007,1.471,4.269,4.269,0,0,1,.321,1.8,4.493,4.493,0,0,1-.456,1.805A4.926,4.926,0,0,1,23.5,12.928a5.282,5.282,0,0,1-1.608,1,5.355,5.355,0,0,1-1.938.377,5.119,5.119,0,0,1-1.914-.35,4.727,4.727,0,0,1-1.541-.981,4.383,4.383,0,0,1-1.013-1.466,4.269,4.269,0,0,1-.33-1.8A4.49,4.49,0,0,1,15.6,7.9,4.923,4.923,0,0,1,16.719,6.41,5.281,5.281,0,0,1,18.333,5.4,5.355,5.355,0,0,1,20.28,5.027Z" transform="translate(109.22 141.88)" fill="#282d32"/>
    </g>
    <g id="Input" transform="translate(128.859 114.407)">
      <g transform="matrix(1, 0, 0, 1, -128.86, -114.41)" filter="url(#Rechteck_31)">
        <path id="Rechteck_31-3" data-name="Rechteck 31" d="M18.562,5,61.1,5a2.937,2.937,0,0,1,1.132.222,2.719,2.719,0,0,1,.9.606,2.6,2.6,0,0,1,.575.9,2.63,2.63,0,0,1,.163,1.1l-.493,7.962a2.8,2.8,0,0,1-.3,1.09,3.064,3.064,0,0,1-.682.891,3.206,3.206,0,0,1-.967.6,3.146,3.146,0,0,1-1.153.223L17.979,18.7a3.038,3.038,0,0,1-1.15-.219,2.825,2.825,0,0,1-.922-.6,2.658,2.658,0,0,1-.6-.9,2.625,2.625,0,0,1-.189-1.1l.332-8.038a2.8,2.8,0,0,1,.281-1.109,3.024,3.024,0,0,1,.68-.906A3.192,3.192,0,0,1,18.562,5Z" transform="translate(128.86 114.41)" fill="rgba(255,255,255,0.04)"/>
      </g>
    </g>
    <g id="Input-2" data-name="Input" transform="translate(128.023 136.768)">
      <g transform="matrix(1, 0, 0, 1, -128.02, -136.77)" filter="url(#Rechteck_31-2)">
        <path id="Rechteck_31-4" data-name="Rechteck 31" d="M18.519,5.2l42.136-.185a2.929,2.929,0,0,1,1.122.213,2.681,2.681,0,0,1,.89.59A2.522,2.522,0,0,1,63.4,7.77l-.476,7.7a2.738,2.738,0,0,1-.294,1.071,3.026,3.026,0,0,1-.675.877,3.2,3.2,0,0,1-.958.594,3.152,3.152,0,0,1-1.142.223l-41.9.294a3.029,3.029,0,0,1-1.139-.209,2.786,2.786,0,0,1-.914-.587,2.591,2.591,0,0,1-.6-.876,2.547,2.547,0,0,1-.188-1.078l.321-7.768a2.727,2.727,0,0,1,.278-1.089,2.986,2.986,0,0,1,.673-.892A3.192,3.192,0,0,1,18.519,5.2Z" transform="translate(128.02 136.77)" fill="rgba(255,255,255,0.04)"/>
      </g>
    </g>
    <g transform="matrix(1, 0, 0, 1, 0, 0)" filter="url(#Linie_6)">
      <g id="Linie_6-2" data-name="Linie 6" transform="translate(97.67 92.59)" fill="none">
        <path d="M9.049,7.949l135.819.506" stroke="none"/>
        <path d="M 144.7115325927734 10.34949493408203 L 9.000004768371582 9.895245552062988 L 9.097569465637207 5.99998664855957 L 145.023681640625 6.558409690856934 L 144.7115325927734 10.34949493408203 Z" stroke="none" fill="#282d32"/>
      </g>
    </g>
  </g>
  <g transform="matrix(1, 0, 0, 1, 0, 0)" filter="url(#Rechteck_42)">
    <path id="Rechteck_42-2" data-name="Rechteck 42" d="M63.694,63.031l132.517,1.338a2.839,2.839,0,0,1,1.128.241,2.657,2.657,0,0,1,1.44,1.568,2.786,2.786,0,0,1,.138,1.137l-1.428,17.35a2.971,2.971,0,0,1-.321,1.116,3.2,3.2,0,0,1-.7.908,3.244,3.244,0,0,1-.978.609,3.086,3.086,0,0,1-1.155.219L63.078,86.8a3.153,3.153,0,0,1-1.192-.238,3.014,3.014,0,0,1-.963-.636,2.871,2.871,0,0,1-.637-.94,2.8,2.8,0,0,1-.214-1.15L60.512,66a2.924,2.924,0,0,1,.273-1.164,3.065,3.065,0,0,1,.69-.947,3.186,3.186,0,0,1,1-.633A3.22,3.22,0,0,1,63.694,63.031Z" transform="translate(45.91 4.95)" fill="#1f242a"/>
  </g>
</svg>
