<svg xmlns="http://www.w3.org/2000/svg" xmlns:xlink="http://www.w3.org/1999/xlink" width="424.893" height="321.32" viewBox="0 0 424.893 321.32"><defs><style>.a{fill:#1f242a;}.b{fill:#282d32;}.c{fill:rgba(255,255,255,0.04);}.d{fill:none;}.e,.f{stroke:none;}.f{fill:#282d32;}.g{filter:url(#s);}.h{filter:url(#q);}.i{filter:url(#o);}.j{filter:url(#m);}.k{filter:url(#k);}.l{filter:url(#i);}.m{filter:url(#g);}.n{filter:url(#e);}.o{filter:url(#c);}.p{filter:url(#a);}</style><filter id="a" x="0" y="0" width="424.893" height="321.32" filterUnits="userSpaceOnUse"><feOffset dy="3" input="SourceAlpha"/><feGaussianBlur stdDeviation="35" result="b"/><feFlood flood-opacity="0.231"/><feComposite operator="in" in2="b"/><feComposite in="SourceGraphic"/></filter><filter id="c" x="110.144" y="114.643" width="40.336" height="40.261" filterUnits="userSpaceOnUse"><feOffset dy="10" input="SourceAlpha"/><feGaussianBlur stdDeviation="5" result="d"/><feFlood flood-opacity="0.329"/><feComposite operator="in" in2="d"/><feComposite in="SourceGraphic"/></filter><filter id="e" x="277.053" y="116.52" width="39.637" height="39.81" filterUnits="userSpaceOnUse"><feOffset dy="10" input="SourceAlpha"/><feGaussianBlur stdDeviation="5" result="f"/><feFlood flood-opacity="0.329"/><feComposite operator="in" in2="f"/><feComposite in="SourceGraphic"/></filter><filter id="g" x="275.537" y="173.872" width="39.581" height="39.765" filterUnits="userSpaceOnUse"><feOffset dy="10" input="SourceAlpha"/><feGaussianBlur stdDeviation="5" result="h"/><feFlood flood-opacity="0.329"/><feComposite operator="in" in2="h"/><feComposite in="SourceGraphic"/></filter><filter id="i" x="109.881" y="145.25" width="40.303" height="40.193" filterUnits="userSpaceOnUse"><feOffset dy="10" input="SourceAlpha"/><feGaussianBlur stdDeviation="5" result="j"/><feFlood flood-opacity="0.329"/><feComposite operator="in" in2="j"/><feComposite in="SourceGraphic"/></filter><filter id="k" x="109.62" y="175.603" width="40.27" height="40.207" filterUnits="userSpaceOnUse"><feOffset dy="10" input="SourceAlpha"/><feGaussianBlur stdDeviation="5" result="l"/><feFlood flood-opacity="0.329"/><feComposite operator="in" in2="l"/><feComposite in="SourceGraphic"/></filter><filter id="m" x="129.054" y="115.853" width="108.282" height="56.929" filterUnits="userSpaceOnUse"><feOffset dy="10" input="SourceAlpha"/><feGaussianBlur stdDeviation="5" result="n"/><feFlood flood-opacity="0.451"/><feComposite operator="in" in2="n"/><feComposite in="SourceGraphic"/></filter><filter id="o" x="128.813" y="164.544" width="107.877" height="57.248" filterUnits="userSpaceOnUse"><feOffset dy="10" input="SourceAlpha"/><feGaussianBlur stdDeviation="5" result="p"/><feFlood flood-opacity="0.451"/><feComposite operator="in" in2="p"/><feComposite in="SourceGraphic"/></filter><filter id="q" x="96.72" y="92.381" width="232.346" height="24.228" filterUnits="userSpaceOnUse"><feOffset dy="3" input="SourceAlpha"/><feGaussianBlur stdDeviation="3" result="r"/><feFlood flood-opacity="0.161"/><feComposite operator="in" in2="r"/><feComposite in="SourceGraphic"/></filter><filter id="s" x="44.753" y="3.187" width="336.131" height="147.673" filterUnits="userSpaceOnUse"><feOffset dy="-3" input="SourceAlpha"/><feGaussianBlur stdDeviation="20" result="t"/><feFlood flood-opacity="0.161"/><feComposite operator="in" in2="t"/><feComposite in="SourceGraphic"/></filter></defs><g transform="translate(0 0)"><g class="p" transform="matrix(1, 0, 0, 1, 0, 0)"><path class="a" d="M105.724,102l214.169,2.12L316.92,205.51a4.05,4.05,0,0,1-.332,1.492,4.093,4.093,0,0,1-.823,1.229,3.931,3.931,0,0,1-1.193.84,3.658,3.658,0,0,1-1.441.327l-204.023,3.844a4.1,4.1,0,0,1-1.6-.287,3.98,3.98,0,0,1-1.3-.84,3.89,3.89,0,0,1-1.185-2.834Z" transform="translate(0 0)"/></g><g class="o" transform="matrix(1, 0, 0, 1, 0, 0)"><path class="b" d="M20.219,5.028a5.091,5.091,0,0,1,4.647,7.118,5.149,5.149,0,0,1-4.741,3.1,5.091,5.091,0,0,1-4.661-7.118,5.149,5.149,0,0,1,4.754-3.1Z" transform="translate(110.14 114.64)"/></g><g class="n" transform="matrix(1, 0, 0, 1, 0, 0)"><path class="b" d="M19.954,5.024a4.445,4.445,0,0,1,1.814.394,4.54,4.54,0,0,1,1.46,1.055,4.763,4.763,0,0,1,.96,1.557,4.992,4.992,0,0,1,.315,1.9,5.122,5.122,0,0,1-.419,1.9,5.07,5.07,0,0,1-1.045,1.548,4.843,4.843,0,0,1-1.516,1.042,4.571,4.571,0,0,1-1.833.379,4.445,4.445,0,0,1-1.814-.388,4.539,4.539,0,0,1-1.463-1.051,4.761,4.761,0,0,1-.965-1.557A4.991,4.991,0,0,1,15.129,9.9a5.122,5.122,0,0,1,.42-1.9A5.069,5.069,0,0,1,16.6,6.441,4.842,4.842,0,0,1,18.118,5.4,4.569,4.569,0,0,1,19.954,5.024Z" transform="translate(277.05 116.52)"/></g><g class="m" transform="matrix(1, 0, 0, 1, 0, 0)"><path class="b" d="M19.924,5.049a4.388,4.388,0,0,1,3.255,1.379,4.6,4.6,0,0,1,.955,1.523,4.862,4.862,0,0,1,.314,1.873,5.1,5.1,0,0,1-1.455,3.425A4.92,4.92,0,0,1,21.486,14.3a4.615,4.615,0,0,1-1.822.4A4.388,4.388,0,0,1,16.4,13.333a4.6,4.6,0,0,1-.96-1.523,4.861,4.861,0,0,1-.317-1.877A5.1,5.1,0,0,1,16.586,6.5,4.919,4.919,0,0,1,18.1,5.448,4.613,4.613,0,0,1,19.924,5.049Z" transform="translate(275.54 173.87)"/></g><g class="l" transform="matrix(1, 0, 0, 1, 0, 0)"><path class="b" d="M20.2,5.013a5.075,5.075,0,0,1,1.983.394,4.992,4.992,0,0,1,3.068,4.665,5.075,5.075,0,0,1-.419,1.975,5.183,5.183,0,0,1-4.725,3.119,5.076,5.076,0,0,1-1.983-.388,4.992,4.992,0,0,1-3.082-4.665,5.075,5.075,0,0,1,.419-1.98A5.182,5.182,0,0,1,20.2,5.013Z" transform="translate(109.88 145.25)"/></g><g class="k" transform="matrix(1, 0, 0, 1, 0, 0)"><path class="b" d="M20.185,5.053a5.052,5.052,0,0,1,1.977.376,4.955,4.955,0,0,1,1.606,1.064,4.9,4.9,0,0,1,1.453,3.547A5.051,5.051,0,0,1,24.8,12a5.216,5.216,0,0,1-4.71,3.136,5.053,5.053,0,0,1-1.977-.37,4.956,4.956,0,0,1-1.61-1.06,4.9,4.9,0,0,1-1.463-3.551,5.051,5.051,0,0,1,.418-1.971,5.216,5.216,0,0,1,4.724-3.136Z" transform="translate(109.62 175.6)"/></g><g transform="translate(129.055 115.853)"><g class="j" transform="matrix(1, 0, 0, 1, -129.05, -115.85)"><path class="c" d="M18.336,5.015l72.015.366a2.846,2.846,0,0,1,1.137.241,2.877,2.877,0,0,1,.919.647,2.947,2.947,0,0,1,.61.955,3.018,3.018,0,0,1,.208,1.166L92.838,28.8a3.063,3.063,0,0,1-.9,2.108,3.01,3.01,0,0,1-.941.64,2.9,2.9,0,0,1-1.143.236l-71.818.139a2.995,2.995,0,0,1-3.008-3.035l.222-20.832a3.069,3.069,0,0,1,3.082-3.041Z" transform="translate(129.05 115.85)"/></g></g><g transform="translate(128.814 164.544)"><g class="i" transform="matrix(1, 0, 0, 1, -128.81, -164.54)"><path class="c" d="M18.318,5.58l71.643-.557a2.807,2.807,0,0,1,2.046.852,2.864,2.864,0,0,1,.607.937,2.952,2.952,0,0,1,.207,1.151l-.384,20.2a3.035,3.035,0,0,1-.25,1.151,3.094,3.094,0,0,1-.641.946,3.049,3.049,0,0,1-.936.645,2.925,2.925,0,0,1-1.137.248L18.025,32.2a2.986,2.986,0,0,1-1.174-.219,2.917,2.917,0,0,1-1.818-2.745l.22-20.612A3.038,3.038,0,0,1,15.5,7.448a3.122,3.122,0,0,1,1.632-1.622A3.063,3.063,0,0,1,18.318,5.58Z" transform="translate(128.81 164.54)"/></g></g><g class="h" transform="matrix(1, 0, 0, 1, 0, 0)"><g class="d" transform="translate(96.72 92.38)"><path class="e" d="M9.013,8.068l214.276,2.207"/><path class="f" d="M 223.2317047119141 12.22795295715332 L 8.999998092651367 10.13552188873291 L 9.026893615722656 6.000005722045898 L 223.3462982177734 8.322173118591309 L 223.2317047119141 12.22795295715332 Z"/></g></g></g><g class="g" transform="matrix(1, 0, 0, 1, 0, 0)"><path class="a" d="M63.29,63.06l210.045,4.021a2.647,2.647,0,0,1,1.082.253,2.758,2.758,0,0,1,.87.649,2.928,2.928,0,0,1,.571.949,3.064,3.064,0,0,1,.186,1.152l-.518,17.653a3.092,3.092,0,0,1-.253,1.14,3.022,3.022,0,0,1-.625.925,2.855,2.855,0,0,1-.9.618,2.689,2.689,0,0,1-1.093.217L63.123,87.975a3.15,3.15,0,0,1-2.865-1.935,3.1,3.1,0,0,1-.238-1.214l.12-18.7A3.082,3.082,0,0,1,63.29,63.06Z" transform="translate(44.75 3.19)"/></g></svg>