<svg id="floating_node_right_1" xmlns="http://www.w3.org/2000/svg" xmlns:xlink="http://www.w3.org/1999/xlink" width="361.827" height="266.976" viewBox="0 0 361.827 266.976">
  <defs>
    <filter id="Rechteck_36" x="0" y="0" width="361.827" height="266.976" filterUnits="userSpaceOnUse">
      <feOffset dy="3" input="SourceAlpha"/>
      <feGaussianBlur stdDeviation="35" result="blur"/>
      <feFlood flood-opacity="0.231"/>
      <feComposite operator="in" in2="blur"/>
      <feComposite in="SourceGraphic"/>
    </filter>
    <filter id="Ellipse_7" x="108.658" y="104.441" width="39.851" height="39.949" filterUnits="userSpaceOnUse">
      <feOffset dy="10" input="SourceAlpha"/>
      <feGaussianBlur stdDeviation="5" result="blur-2"/>
      <feFlood flood-opacity="0.329"/>
      <feComposite operator="in" in2="blur-2"/>
      <feComposite in="SourceGraphic"/>
    </filter>
    <filter id="Ellipse_8" x="212.542" y="104.722" width="40.077" height="40.063" filterUnits="userSpaceOnUse">
      <feOffset dy="10" input="SourceAlpha"/>
      <feGaussianBlur stdDeviation="5" result="blur-3"/>
      <feFlood flood-opacity="0.329"/>
      <feComposite operator="in" in2="blur-3"/>
      <feComposite in="SourceGraphic"/>
    </filter>
    <filter id="Ellipse_9" x="212.542" y="133.127" width="40.077" height="40.091" filterUnits="userSpaceOnUse">
      <feOffset dy="10" input="SourceAlpha"/>
      <feGaussianBlur stdDeviation="5" result="blur-4"/>
      <feFlood flood-opacity="0.329"/>
      <feComposite operator="in" in2="blur-4"/>
      <feComposite in="SourceGraphic"/>
    </filter>
    <filter id="Ellipse_10" x="108.658" y="118.804" width="39.851" height="39.961" filterUnits="userSpaceOnUse">
      <feOffset dy="10" input="SourceAlpha"/>
      <feGaussianBlur stdDeviation="5" result="blur-5"/>
      <feFlood flood-opacity="0.329"/>
      <feComposite operator="in" in2="blur-5"/>
      <feComposite in="SourceGraphic"/>
    </filter>
    <filter id="Ellipse_11" x="108.658" y="132.844" width="39.851" height="39.976" filterUnits="userSpaceOnUse">
      <feOffset dy="10" input="SourceAlpha"/>
      <feGaussianBlur stdDeviation="5" result="blur-6"/>
      <feFlood flood-opacity="0.329"/>
      <feComposite operator="in" in2="blur-6"/>
      <feComposite in="SourceGraphic"/>
    </filter>
    <filter id="Rechteck_31" x="127.392" y="109.419" width="84.385" height="45.154" filterUnits="userSpaceOnUse">
      <feOffset dy="10" input="SourceAlpha"/>
      <feGaussianBlur stdDeviation="5" result="blur-7"/>
      <feFlood flood-opacity="0.451"/>
      <feComposite operator="in" in2="blur-7"/>
      <feComposite in="SourceGraphic"/>
    </filter>
    <filter id="Rechteck_31-2" x="127.392" y="129.368" width="84.385" height="45.656" filterUnits="userSpaceOnUse">
      <feOffset dy="10" input="SourceAlpha"/>
      <feGaussianBlur stdDeviation="5" result="blur-8"/>
      <feFlood flood-opacity="0.451"/>
      <feComposite operator="in" in2="blur-8"/>
      <feComposite in="SourceGraphic"/>
    </filter>
    <filter id="Linie_6" x="96" y="92.47" width="169.907" height="22.208" filterUnits="userSpaceOnUse">
      <feOffset dy="3" input="SourceAlpha"/>
      <feGaussianBlur stdDeviation="3" result="blur-9"/>
      <feFlood flood-opacity="0.161"/>
      <feComposite operator="in" in2="blur-9"/>
      <feComposite in="SourceGraphic"/>
    </filter>
    <filter id="Rechteck_42" x="44.02" y="4.209" width="272.807" height="144.561" filterUnits="userSpaceOnUse">
      <feOffset dy="-3" input="SourceAlpha"/>
      <feGaussianBlur stdDeviation="20" result="blur-10"/>
      <feFlood flood-opacity="0.161"/>
      <feComposite operator="in" in2="blur-10"/>
      <feComposite in="SourceGraphic"/>
    </filter>
  </defs>
  <g id="Gruppe_12" data-name="Gruppe 12">
    <g transform="matrix(1, 0, 0, 1, 0, 0)" filter="url(#Rechteck_36)">
      <path id="Rechteck_36-2" data-name="Rechteck 36" d="M105,102.183,256.827,102v52.942a4.015,4.015,0,0,1-2.474,3.7,4.041,4.041,0,0,1-1.576.309l-143.855-.716a3.882,3.882,0,0,1-1.527-.319,3.952,3.952,0,0,1-1.246-.856A4,4,0,0,1,105,154.253Z" fill="#1f242a"/>
    </g>
    <g transform="matrix(1, 0, 0, 1, 0, 0)" filter="url(#Ellipse_7)">
      <path id="Ellipse_7-2" data-name="Ellipse 7" d="M19.923,5a4.87,4.87,0,0,1,1.918.39,4.932,4.932,0,0,1,1.566,1.065,5,5,0,0,1,0,7.034,4.93,4.93,0,0,1-1.566,1.065,4.9,4.9,0,0,1-3.834,0,4.932,4.932,0,0,1-1.565-1.066,5,5,0,0,1,0-7.029,4.93,4.93,0,0,1,1.565-1.066A4.87,4.87,0,0,1,19.923,5Z" transform="translate(108.66 104.44)" fill="#282d32"/>
    </g>
    <g transform="matrix(1, 0, 0, 1, 0, 0)" filter="url(#Ellipse_8)">
      <path id="Ellipse_8-2" data-name="Ellipse 8" d="M20.036,5a5.027,5.027,0,1,1-1.961.4A5.032,5.032,0,0,1,20.036,5Z" transform="translate(212.54 104.72)" fill="#282d32"/>
    </g>
    <g transform="matrix(1, 0, 0, 1, 0, 0)" filter="url(#Ellipse_9)">
      <path id="Ellipse_9-2" data-name="Ellipse 9" d="M20.036,5.014a5.011,5.011,0,1,1-1.961.39A5.041,5.041,0,0,1,20.036,5.014Z" transform="translate(212.54 133.13)" fill="#282d32"/>
    </g>
    <g transform="matrix(1, 0, 0, 1, 0, 0)" filter="url(#Ellipse_10)">
      <path id="Ellipse_10-2" data-name="Ellipse 10" d="M19.923,5.006A4.875,4.875,0,0,1,21.84,5.4a4.943,4.943,0,0,1,1.566,1.068,5,5,0,0,1,0,7.034,4.919,4.919,0,0,1-1.566,1.062,4.9,4.9,0,0,1-3.834-.009,4.943,4.943,0,0,1-1.565-1.069,5,5,0,0,1,0-7.029,4.919,4.919,0,0,1,1.565-1.063A4.865,4.865,0,0,1,19.923,5.006Z" transform="translate(108.66 118.8)" fill="#282d32"/>
    </g>
    <g transform="matrix(1, 0, 0, 1, 0, 0)" filter="url(#Ellipse_11)">
      <path id="Ellipse_11-2" data-name="Ellipse 11" d="M19.923,5.013a4.879,4.879,0,0,1,1.918.4,4.953,4.953,0,0,1,1.566,1.07,4.994,4.994,0,0,1,0,7.034,4.9,4.9,0,0,1-6.965-.025,4.994,4.994,0,0,1,0-7.029,4.871,4.871,0,0,1,3.481-1.446Z" transform="translate(108.66 132.84)" fill="#282d32"/>
    </g>
    <g id="Input" transform="translate(127.392 109.419)">
      <g transform="matrix(1, 0, 0, 1, -127.39, -109.42)" filter="url(#Rechteck_31)">
        <path id="Rechteck_31-3" data-name="Rechteck 31" d="M17.965,5l48.421.007a3,3,0,0,1,3,3.006v9.135a2.992,2.992,0,0,1-3,3l-48.421-.087a2.94,2.94,0,0,1-1.154-.237A2.995,2.995,0,0,1,15,17.068V7.988a2.989,2.989,0,0,1,.868-2.112,2.968,2.968,0,0,1,.942-.64A2.937,2.937,0,0,1,17.965,5Z" transform="translate(127.39 109.42)" fill="rgba(255,255,255,0.04)"/>
      </g>
    </g>
    <g id="Input-2" data-name="Input" transform="translate(127.392 129.368)">
      <g transform="matrix(1, 0, 0, 1, -127.39, -129.37)" filter="url(#Rechteck_31-2)">
        <path id="Rechteck_31-4" data-name="Rechteck 31" d="M17.965,5.007l48.421.113a2.993,2.993,0,0,1,2.12.885,3.007,3.007,0,0,1,.878,2.127V17.65a2.984,2.984,0,0,1-3,2.993l-48.421-.2a2.944,2.944,0,0,1-1.154-.239A3,3,0,0,1,15,17.449V7.988a2.983,2.983,0,0,1,.868-2.111,2.938,2.938,0,0,1,2.1-.87Z" transform="translate(127.39 129.37)" fill="rgba(255,255,255,0.04)"/>
      </g>
    </g>
    <g transform="matrix(1, 0, 0, 1, 0, 0)" filter="url(#Linie_6)">
      <g id="Linie_6-2" data-name="Linie 6" transform="translate(96 92.47)" fill="none">
        <path d="M9,8.225l151.907-.208" stroke="none"/>
        <path d="M 160.9073028564453 10.03371906280518 L 8.999960899353027 10.20815277099609 L 8.999960899353027 6.240884304046631 L 160.9073028564453 6 L 160.9073028564453 10.03371906280518 Z" stroke="none" fill="#282d32"/>
      </g>
    </g>
  </g>
  <g transform="matrix(1, 0, 0, 1, 0, 0)" filter="url(#Rechteck_42)">
    <path id="Rechteck_42-2" data-name="Rechteck 42" d="M62.94,63.746l146.829-.731a3.021,3.021,0,0,1,2.8,1.834,3,3,0,0,1,.239,1.176V84.177a3.008,3.008,0,0,1-.239,1.178,3.046,3.046,0,0,1-2.8,1.854L62.94,87.554a2.9,2.9,0,0,1-1.145-.231,2.933,2.933,0,0,1-.935-.635,2.977,2.977,0,0,1-.861-2.1V66.735a3,3,0,0,1,.861-2.108,2.963,2.963,0,0,1,.935-.642A2.91,2.91,0,0,1,62.94,63.746Z" transform="translate(44.02 4.21)" fill="#1f242a"/>
  </g>
</svg>
