<svg id="floating_node_right_2" xmlns="http://www.w3.org/2000/svg" xmlns:xlink="http://www.w3.org/1999/xlink" width="413.069" height="500.086" viewBox="0 0 413.069 500.086">
  <defs>
    <filter id="Rechteck_36" x="0" y="0" width="413.069" height="500.086" filterUnits="userSpaceOnUse">
      <feOffset dy="3" input="SourceAlpha"/>
      <feGaussianBlur stdDeviation="35" result="blur"/>
      <feFlood flood-opacity="0.231"/>
      <feComposite operator="in" in2="blur"/>
      <feComposite in="SourceGraphic"/>
    </filter>
    <filter id="Ellipse_7" x="108.654" y="148.439" width="39.842" height="39.995" filterUnits="userSpaceOnUse">
      <feOffset dy="10" input="SourceAlpha"/>
      <feGaussianBlur stdDeviation="5" result="blur-2"/>
      <feFlood flood-opacity="0.329"/>
      <feComposite operator="in" in2="blur-2"/>
      <feComposite in="SourceGraphic"/>
    </filter>
    <filter id="Ellipse_8" x="263.692" y="149.278" width="40.113" height="40.13" filterUnits="userSpaceOnUse">
      <feOffset dy="10" input="SourceAlpha"/>
      <feGaussianBlur stdDeviation="5" result="blur-3"/>
      <feFlood flood-opacity="0.329"/>
      <feComposite operator="in" in2="blur-3"/>
      <feComposite in="SourceGraphic"/>
    </filter>
    <filter id="Ellipse_9" x="263.692" y="314.627" width="40.113" height="40.152" filterUnits="userSpaceOnUse">
      <feOffset dy="10" input="SourceAlpha"/>
      <feGaussianBlur stdDeviation="5" result="blur-4"/>
      <feFlood flood-opacity="0.329"/>
      <feComposite operator="in" in2="blur-4"/>
      <feComposite in="SourceGraphic"/>
    </filter>
    <filter id="Ellipse_10" x="108.654" y="231.887" width="39.842" height="39.944" filterUnits="userSpaceOnUse">
      <feOffset dy="10" input="SourceAlpha"/>
      <feGaussianBlur stdDeviation="5" result="blur-5"/>
      <feFlood flood-opacity="0.329"/>
      <feComposite operator="in" in2="blur-5"/>
      <feComposite in="SourceGraphic"/>
    </filter>
    <filter id="Ellipse_11" x="108.654" y="313.415" width="39.842" height="40.014" filterUnits="userSpaceOnUse">
      <feOffset dy="10" input="SourceAlpha"/>
      <feGaussianBlur stdDeviation="5" result="blur-6"/>
      <feFlood flood-opacity="0.329"/>
      <feComposite operator="in" in2="blur-6"/>
      <feComposite in="SourceGraphic"/>
    </filter>
    <filter id="Rechteck_31" x="127.369" y="219.943" width="102.557" height="56.523" filterUnits="userSpaceOnUse">
      <feOffset dy="10" input="SourceAlpha"/>
      <feGaussianBlur stdDeviation="5" result="blur-7"/>
      <feFlood flood-opacity="0.451"/>
      <feComposite operator="in" in2="blur-7"/>
      <feComposite in="SourceGraphic"/>
    </filter>
    <filter id="Rechteck_31-2" x="127.369" y="305.984" width="102.557" height="57.041" filterUnits="userSpaceOnUse">
      <feOffset dy="10" input="SourceAlpha"/>
      <feGaussianBlur stdDeviation="5" result="blur-8"/>
      <feFlood flood-opacity="0.451"/>
      <feComposite operator="in" in2="blur-8"/>
      <feComposite in="SourceGraphic"/>
    </filter>
    <filter id="Rechteck_47" x="127.369" y="143.106" width="102.557" height="56.871" filterUnits="userSpaceOnUse">
      <feOffset dy="10" input="SourceAlpha"/>
      <feGaussianBlur stdDeviation="5" result="blur-9"/>
      <feFlood flood-opacity="0.451"/>
      <feComposite operator="in" in2="blur-9"/>
      <feComposite in="SourceGraphic"/>
    </filter>
    <filter id="Linie_6" x="96" y="92.468" width="221.149" height="24.273" filterUnits="userSpaceOnUse">
      <feOffset dy="3" input="SourceAlpha"/>
      <feGaussianBlur stdDeviation="3" result="blur-10"/>
      <feFlood flood-opacity="0.161"/>
      <feComposite operator="in" in2="blur-10"/>
      <feComposite in="SourceGraphic"/>
    </filter>
    <filter id="Rechteck_42" x="44.02" y="4.19" width="324.049" height="146.659" filterUnits="userSpaceOnUse">
      <feOffset dy="-3" input="SourceAlpha"/>
      <feGaussianBlur stdDeviation="20" result="blur-11"/>
      <feFlood flood-opacity="0.161"/>
      <feComposite operator="in" in2="blur-11"/>
      <feComposite in="SourceGraphic"/>
    </filter>
  </defs>
  <g id="Gruppe_12" data-name="Gruppe 12" transform="translate(0 0)">
    <g transform="matrix(1, 0, 0, 1, 0, 0)" filter="url(#Rechteck_36)">
      <path id="Rechteck_36-2" data-name="Rechteck 36" d="M105,104.245,308.069,102V388.05a3.972,3.972,0,0,1-2.481,3.684,4.038,4.038,0,0,1-1.58.295l-195.086-2.745a3.906,3.906,0,0,1-1.527-.333,4,4,0,0,1-1.247-.867,4.031,4.031,0,0,1-1.148-2.82Z" transform="translate(0 0)" fill="#1f242a"/>
    </g>
    <g transform="matrix(1, 0, 0, 1, 0, 0)" filter="url(#Ellipse_7)">
      <path id="Ellipse_7-2" data-name="Ellipse 7" d="M19.919,5.033A4.853,4.853,0,0,1,23.4,6.465a4.943,4.943,0,0,1,1.442,3.5,5.006,5.006,0,0,1-3.007,4.6,4.868,4.868,0,0,1-5.395-1.032A4.943,4.943,0,0,1,15,10.03a5.006,5.006,0,0,1,3-4.594A4.885,4.885,0,0,1,19.919,5.033Z" transform="translate(108.65 148.44)" fill="#282d32"/>
    </g>
    <g transform="matrix(1, 0, 0, 1, 0, 0)" filter="url(#Ellipse_8)">
      <path id="Ellipse_8-2" data-name="Ellipse 8" d="M20.054,5.033a5.02,5.02,0,0,1,4.661,3.046,5.03,5.03,0,0,1,0,3.921,5.093,5.093,0,0,1-6.629,2.718A5.01,5.01,0,0,1,15.4,8.137a5.092,5.092,0,0,1,4.657-3.1Z" transform="translate(263.69 149.28)" fill="#282d32"/>
    </g>
    <g transform="matrix(1, 0, 0, 1, 0, 0)" filter="url(#Ellipse_9)">
      <path id="Ellipse_9-2" data-name="Ellipse 9" d="M20.054,5.04a5.113,5.113,0,0,1,4.661,3.112,5,5,0,0,1-4.661,6.956A5.113,5.113,0,0,1,15.4,11.994,5,5,0,0,1,20.054,5.04Z" transform="translate(263.69 314.63)" fill="#282d32"/>
    </g>
    <g transform="matrix(1, 0, 0, 1, 0, 0)" filter="url(#Ellipse_10)">
      <path id="Ellipse_10-2" data-name="Ellipse 10" d="M19.919,5a4.87,4.87,0,0,1,1.916.392A4.934,4.934,0,0,1,23.4,6.46a4.991,4.991,0,0,1,0,7.026,4.92,4.92,0,0,1-1.565,1.062A4.9,4.9,0,0,1,18,14.543a4.934,4.934,0,0,1-1.564-1.066,4.991,4.991,0,0,1,0-7.022A4.92,4.92,0,0,1,18,5.392,4.864,4.864,0,0,1,19.919,5Z" transform="translate(108.65 231.89)" fill="#282d32"/>
    </g>
    <g transform="matrix(1, 0, 0, 1, 0, 0)" filter="url(#Ellipse_11)">
      <path id="Ellipse_11-2" data-name="Ellipse 11" d="M19.919,5.038a4.891,4.891,0,0,1,1.916.405A4.983,4.983,0,0,1,23.4,6.521a5.015,5.015,0,0,1,1.442,3.525,4.933,4.933,0,0,1-1.442,3.5A4.878,4.878,0,0,1,18,14.565a4.983,4.983,0,0,1-1.564-1.078A5.015,5.015,0,0,1,15,9.964a4.933,4.933,0,0,1,1.44-3.5,4.843,4.843,0,0,1,3.479-1.427Z" transform="translate(108.65 313.42)" fill="#282d32"/>
    </g>
    <g id="Input" transform="translate(127.369 219.942)">
      <g transform="matrix(1, 0, 0, 1, -127.37, -219.94)" filter="url(#Rechteck_31)">
        <path id="Rechteck_31-3" data-name="Rechteck 31" d="M17.961,5.029,84.56,5a3,3,0,0,1,3,3V28.52a2.989,2.989,0,0,1-3,3l-66.6-.127a2.935,2.935,0,0,1-1.153-.237A2.991,2.991,0,0,1,15,28.4V8.013a2.985,2.985,0,0,1,1.808-2.75A2.933,2.933,0,0,1,17.961,5.029Z" transform="translate(127.37 219.94)" fill="rgba(255,255,255,0.04)"/>
      </g>
    </g>
    <g id="Input-2" data-name="Input" transform="translate(127.369 143.106)">
      <g transform="matrix(1, 0, 0, 1, -127.37, -143.11)" filter="url(#Rechteck_31-2)">
        <path id="Rechteck_31-4" data-name="Rechteck 31" d="M17.961,5.021l66.6.476a3,3,0,0,1,1.166.244,3.026,3.026,0,0,1,1.831,2.78V29.039a2.964,2.964,0,0,1-3,2.974l-66.6-.63a2.949,2.949,0,0,1-1.153-.245A3.017,3.017,0,0,1,15,28.371V7.984a2.964,2.964,0,0,1,.867-2.1,2.919,2.919,0,0,1,2.094-.859Z" transform="translate(127.37 305.98)" fill="rgba(255,255,255,0.04)"/>
      </g>
      <g transform="matrix(1, 0, 0, 1, -127.37, -143.11)" filter="url(#Rechteck_47)">
        <path id="Rechteck_47-2" data-name="Rechteck 47" d="M17.961,5.5l66.6-.474a2.974,2.974,0,0,1,3,2.981V28.52a3.013,3.013,0,0,1-3,3.017l-66.6.32a2.926,2.926,0,0,1-2.094-.864A2.971,2.971,0,0,1,15,28.888V8.5a3.011,3.011,0,0,1,1.808-2.762A2.945,2.945,0,0,1,17.961,5.5Z" transform="translate(127.37 143.11)" fill="rgba(255,255,255,0.04)"/>
      </g>
    </g>
    <g transform="matrix(1, 0, 0, 1, 0, 0)" filter="url(#Linie_6)">
      <g id="Linie_6-2" data-name="Linie 6" transform="translate(96 92.47)" fill="none">
        <path d="M9,10.291,212.149,8.018" stroke="none"/>
        <path d="M 212.1492614746094 10.0360107421875 L 8.99997615814209 12.27338981628418 L 8.99997615814209 8.308414459228516 L 212.1492614746094 6.000007152557373 L 212.1492614746094 10.0360107421875 Z" stroke="none" fill="#282d32"/>
      </g>
    </g>
  </g>
  <g transform="matrix(1, 0, 0, 1, 0, 0)" filter="url(#Rechteck_42)">
    <path id="Rechteck_42-2" data-name="Rechteck 42" d="M62.941,65.83,261,63.043a3.029,3.029,0,0,1,1.185.221,2.973,2.973,0,0,1,1.86,2.763V84.189a3.021,3.021,0,0,1-.239,1.181A3.089,3.089,0,0,1,261,87.252L62.941,89.624a2.881,2.881,0,0,1-2.08-.846,2.932,2.932,0,0,1-.63-.938A2.972,2.972,0,0,1,60,86.686V68.845a3.026,3.026,0,0,1,1.8-2.765A2.929,2.929,0,0,1,62.941,65.83Z" transform="translate(44.02 4.19)" fill="#1f242a"/>
  </g>
</svg>
