<svg id="floating_node_left_3" xmlns="http://www.w3.org/2000/svg" xmlns:xlink="http://www.w3.org/1999/xlink" width="480.164" height="374.379" viewBox="0 0 480.164 374.379">
  <defs>
    <filter id="Rechteck_36" x="0" y="0" width="480.164" height="374.379" filterUnits="userSpaceOnUse">
      <feOffset dy="3" input="SourceAlpha"/>
      <feGaussianBlur stdDeviation="35" result="blur"/>
      <feFlood flood-opacity="0.231"/>
      <feComposite operator="in" in2="blur"/>
      <feComposite in="SourceGraphic"/>
    </filter>
    <filter id="Ellipse_7" x="109.927" y="124.255" width="40.4" height="40.423" filterUnits="userSpaceOnUse">
      <feOffset dy="10" input="SourceAlpha"/>
      <feGaussianBlur stdDeviation="5" result="blur-2"/>
      <feFlood flood-opacity="0.329"/>
      <feComposite operator="in" in2="blur-2"/>
      <feComposite in="SourceGraphic"/>
    </filter>
    <filter id="Ellipse_8" x="333.785" y="127.535" width="39.143" height="39.766" filterUnits="userSpaceOnUse">
      <feOffset dy="10" input="SourceAlpha"/>
      <feGaussianBlur stdDeviation="5" result="blur-3"/>
      <feFlood flood-opacity="0.329"/>
      <feComposite operator="in" in2="blur-3"/>
      <feComposite in="SourceGraphic"/>
    </filter>
    <filter id="Ellipse_9" x="333.785" y="212.756" width="39.143" height="39.841" filterUnits="userSpaceOnUse">
      <feOffset dy="10" input="SourceAlpha"/>
      <feGaussianBlur stdDeviation="5" result="blur-4"/>
      <feFlood flood-opacity="0.329"/>
      <feComposite operator="in" in2="blur-4"/>
      <feComposite in="SourceGraphic"/>
    </filter>
    <filter id="Ellipse_10" x="109.927" y="170.785" width="40.4" height="40.374" filterUnits="userSpaceOnUse">
      <feOffset dy="10" input="SourceAlpha"/>
      <feGaussianBlur stdDeviation="5" result="blur-5"/>
      <feFlood flood-opacity="0.329"/>
      <feComposite operator="in" in2="blur-5"/>
      <feComposite in="SourceGraphic"/>
    </filter>
    <filter id="Ellipse_11" x="109.927" y="216.177" width="40.4" height="40.506" filterUnits="userSpaceOnUse">
      <feOffset dy="10" input="SourceAlpha"/>
      <feGaussianBlur stdDeviation="5" result="blur-6"/>
      <feFlood flood-opacity="0.329"/>
      <feComposite operator="in" in2="blur-6"/>
      <feComposite in="SourceGraphic"/>
    </filter>
    <filter id="Rechteck_31" x="129.635" y="118.907" width="129.683" height="57.688" filterUnits="userSpaceOnUse">
      <feOffset dy="10" input="SourceAlpha"/>
      <feGaussianBlur stdDeviation="5" result="blur-7"/>
      <feFlood flood-opacity="0.451"/>
      <feComposite operator="in" in2="blur-7"/>
      <feComposite in="SourceGraphic"/>
    </filter>
    <filter id="Rechteck_31-2" x="129.635" y="166.813" width="129.683" height="57.427" filterUnits="userSpaceOnUse">
      <feOffset dy="10" input="SourceAlpha"/>
      <feGaussianBlur stdDeviation="5" result="blur-8"/>
      <feFlood flood-opacity="0.451"/>
      <feComposite operator="in" in2="blur-8"/>
      <feComposite in="SourceGraphic"/>
    </filter>
    <filter id="Linie_6" x="96" y="92.359" width="288.236" height="26.938" filterUnits="userSpaceOnUse">
      <feOffset dy="3" input="SourceAlpha"/>
      <feGaussianBlur stdDeviation="3" result="blur-9"/>
      <feFlood flood-opacity="0.161"/>
      <feComposite operator="in" in2="blur-9"/>
      <feComposite in="SourceGraphic"/>
    </filter>
    <filter id="Rechteck_42" x="43.945" y="3.078" width="391.219" height="150.631" filterUnits="userSpaceOnUse">
      <feOffset dy="-3" input="SourceAlpha"/>
      <feGaussianBlur stdDeviation="20" result="blur-10"/>
      <feFlood flood-opacity="0.161"/>
      <feComposite operator="in" in2="blur-10"/>
      <feComposite in="SourceGraphic"/>
    </filter>
  </defs>
  <g id="Gruppe_12" data-name="Gruppe 12" transform="translate(0 0)">
    <g transform="matrix(1, 0, 0, 1, 0, 0)" filter="url(#Rechteck_36)">
      <path id="Rechteck_36-2" data-name="Rechteck 36" d="M105,102l270.164,4.814v148.21a4.118,4.118,0,0,1-.284,1.506,4.024,4.024,0,0,1-.774,1.245,3.759,3.759,0,0,1-1.149.857,3.477,3.477,0,0,1-1.408.342l-262.337,7.287a4.181,4.181,0,0,1-1.639-.281,4.069,4.069,0,0,1-1.339-.854A4.008,4.008,0,0,1,105,262.217Z" transform="translate(0 0)" fill="#1f242a"/>
    </g>
    <g transform="matrix(1, 0, 0, 1, 0, 0)" filter="url(#Ellipse_7)">
      <path id="Ellipse_7-2" data-name="Ellipse 7" d="M20.207,5.054a5.26,5.26,0,0,1,4.785,3.2,5.146,5.146,0,0,1,.407,2.012A5.086,5.086,0,0,1,23.881,13.9a5.155,5.155,0,0,1-3.673,1.484,5.261,5.261,0,0,1-4.8-3.195A5.146,5.146,0,0,1,15,10.173,5.086,5.086,0,0,1,16.527,6.53a5.155,5.155,0,0,1,3.681-1.477Z" transform="translate(109.93 124.26)" fill="#282d32"/>
    </g>
    <g transform="matrix(1, 0, 0, 1, 0, 0)" filter="url(#Ellipse_8)">
      <path id="Ellipse_8-2" data-name="Ellipse 8" d="M19.578,5.046a4.361,4.361,0,0,1,1.779.4A4.631,4.631,0,0,1,22.807,6.5a4.934,4.934,0,0,1,.978,1.547,5.126,5.126,0,0,1,0,3.766,4.821,4.821,0,0,1-.978,1.53,4.52,4.52,0,0,1-1.451,1.026,4.316,4.316,0,0,1-1.779.368,4.36,4.36,0,0,1-1.78-.394,4.629,4.629,0,0,1-1.455-1.05,4.933,4.933,0,0,1-.982-1.549,5.126,5.126,0,0,1,0-3.775,4.82,4.82,0,0,1,.982-1.532A4.519,4.519,0,0,1,17.8,5.409,4.315,4.315,0,0,1,19.578,5.046Z" transform="translate(333.79 127.53)" fill="#282d32"/>
    </g>
    <g transform="matrix(1, 0, 0, 1, 0, 0)" filter="url(#Ellipse_9)">
      <path id="Ellipse_9-2" data-name="Ellipse 9" d="M19.578,5.07a4.3,4.3,0,0,1,1.779.353,4.469,4.469,0,0,1,1.451,1.015,4.768,4.768,0,0,1,.978,1.522,5.031,5.031,0,0,1,.358,1.877,5.124,5.124,0,0,1-.358,1.889,4.989,4.989,0,0,1-.978,1.555,4.685,4.685,0,0,1-1.451,1.063,4.384,4.384,0,0,1-1.779.413,4.3,4.3,0,0,1-1.78-.348A4.467,4.467,0,0,1,16.342,13.4a4.767,4.767,0,0,1-.982-1.524A5.03,5.03,0,0,1,15,9.991,5.124,5.124,0,0,1,15.36,8.1a4.987,4.987,0,0,1,.982-1.557A4.683,4.683,0,0,1,17.8,5.478,4.383,4.383,0,0,1,19.578,5.07Z" transform="translate(333.79 212.76)" fill="#282d32"/>
    </g>
    <g transform="matrix(1, 0, 0, 1, 0, 0)" filter="url(#Ellipse_10)">
      <path id="Ellipse_10-2" data-name="Ellipse 10" d="M20.207,5.014a5.179,5.179,0,0,1,3.673,1.5,5.137,5.137,0,0,1,1.112,5.652,5.218,5.218,0,0,1-8.465,1.683A5.137,5.137,0,0,1,15.41,8.186a5.226,5.226,0,0,1,4.8-3.172Z" transform="translate(109.93 170.79)" fill="#282d32"/>
    </g>
    <g transform="matrix(1, 0, 0, 1, 0, 0)" filter="url(#Ellipse_11)">
      <path id="Ellipse_11-2" data-name="Ellipse 11" d="M20.207,5.08a5.165,5.165,0,0,1,2.023.375,5.057,5.057,0,0,1,3.169,4.7,5.17,5.17,0,0,1-.407,2.015,5.3,5.3,0,0,1-4.785,3.238,5.165,5.165,0,0,1-2.025-.369A5.057,5.057,0,0,1,15,10.333a5.17,5.17,0,0,1,.41-2.02,5.3,5.3,0,0,1,4.8-3.233Z" transform="translate(109.93 216.18)" fill="#282d32"/>
    </g>
    <g id="Input" transform="translate(129.635 118.907)">
      <g transform="matrix(1, 0, 0, 1, -129.64, -118.91)" filter="url(#Rechteck_31)">
        <path id="Rechteck_31-3" data-name="Rechteck 31" d="M18.092,5.037l93.664,1.112a2.877,2.877,0,0,1,1.14.249,2.976,2.976,0,0,1,.93.654,3.066,3.066,0,0,1,.857,2.132v20.5a3.05,3.05,0,0,1-.23,1.167,2.992,2.992,0,0,1-.627.951,2.91,2.91,0,0,1-.93.639,2.849,2.849,0,0,1-1.14.231l-93.664-.4A3.1,3.1,0,0,1,15,29.18V8.087a3.047,3.047,0,0,1,3.092-3.05Z" transform="translate(129.64 118.91)" fill="rgba(255,255,255,0.04)"/>
      </g>
    </g>
    <g id="Input-2" data-name="Input" transform="translate(129.635 166.813)">
      <g transform="matrix(1, 0, 0, 1, -129.64, -166.81)" filter="url(#Rechteck_31-2)">
        <path id="Rechteck_31-4" data-name="Rechteck 31" d="M18.092,5.155,111.756,5a2.854,2.854,0,0,1,1.14.234,2.921,2.921,0,0,1,.93.642,3,3,0,0,1,.627.953A3.055,3.055,0,0,1,114.683,8V28.5a3.058,3.058,0,0,1-.857,2.129,2.965,2.965,0,0,1-.93.652,2.872,2.872,0,0,1-1.14.246L18.092,32.4A3.053,3.053,0,0,1,15,29.34V8.247a3.094,3.094,0,0,1,3.092-3.092Z" transform="translate(129.64 166.81)" fill="rgba(255,255,255,0.04)"/>
      </g>
    </g>
    <g transform="matrix(1, 0, 0, 1, 0, 0)" filter="url(#Linie_6)">
      <g id="Linie_6-2" data-name="Linie 6" transform="translate(96 92.36)" fill="none">
        <path d="M9,8.081l270.236,4.933" stroke="none"/>
        <path d="M 279.23583984375 14.93810653686523 L 9.000029563903809 10.16145896911621 L 9.000029563903809 5.99997615814209 L 279.23583984375 11.08856773376465 L 279.23583984375 14.93810653686523 Z" stroke="none" fill="#282d32"/>
      </g>
    </g>
  </g>
  <g transform="matrix(1, 0, 0, 1, 0, 0)" filter="url(#Rechteck_42)">
    <path id="Rechteck_42-2" data-name="Rechteck 42" d="M63.163,63.088l265.347,7.37a2.606,2.606,0,0,1,1.055.256,2.82,2.82,0,0,1,.861.643,3.02,3.02,0,0,1,.58.934,3.089,3.089,0,0,1,.213,1.13V90.744a3.008,3.008,0,0,1-.213,1.119,2.829,2.829,0,0,1-.58.906,2.634,2.634,0,0,1-.861.6,2.529,2.529,0,0,1-1.055.205L63.163,88.042a3.228,3.228,0,0,1-1.231-.271,3.264,3.264,0,0,1-1.005-.69,3.217,3.217,0,0,1-.678-1.007A3.114,3.114,0,0,1,60,84.854V66.122A3.023,3.023,0,0,1,61.932,63.3,3.141,3.141,0,0,1,63.163,63.088Z" transform="translate(43.95 3.08)" fill="#1f242a"/>
  </g>
</svg>
