<svg id="floating_node_left_2" xmlns="http://www.w3.org/2000/svg" xmlns:xlink="http://www.w3.org/1999/xlink" width="424.893" height="321.32" viewBox="0 0 424.893 321.32">
  <defs>
    <filter id="Rechteck_36" x="0" y="0" width="424.893" height="321.32" filterUnits="userSpaceOnUse">
      <feOffset dy="3" input="SourceAlpha"/>
      <feGaussianBlur stdDeviation="35" result="blur"/>
      <feFlood flood-opacity="0.231"/>
      <feComposite operator="in" in2="blur"/>
      <feComposite in="SourceGraphic"/>
    </filter>
    <filter id="Ellipse_7" x="110.144" y="114.643" width="40.336" height="40.261" filterUnits="userSpaceOnUse">
      <feOffset dy="10" input="SourceAlpha"/>
      <feGaussianBlur stdDeviation="5" result="blur-2"/>
      <feFlood flood-opacity="0.329"/>
      <feComposite operator="in" in2="blur-2"/>
      <feComposite in="SourceGraphic"/>
    </filter>
    <filter id="Ellipse_8" x="277.053" y="116.52" width="39.637" height="39.81" filterUnits="userSpaceOnUse">
      <feOffset dy="10" input="SourceAlpha"/>
      <feGaussianBlur stdDeviation="5" result="blur-3"/>
      <feFlood flood-opacity="0.329"/>
      <feComposite operator="in" in2="blur-3"/>
      <feComposite in="SourceGraphic"/>
    </filter>
    <filter id="Ellipse_9" x="275.537" y="173.872" width="39.581" height="39.765" filterUnits="userSpaceOnUse">
      <feOffset dy="10" input="SourceAlpha"/>
      <feGaussianBlur stdDeviation="5" result="blur-4"/>
      <feFlood flood-opacity="0.329"/>
      <feComposite operator="in" in2="blur-4"/>
      <feComposite in="SourceGraphic"/>
    </filter>
    <filter id="Ellipse_10" x="109.881" y="145.25" width="40.303" height="40.193" filterUnits="userSpaceOnUse">
      <feOffset dy="10" input="SourceAlpha"/>
      <feGaussianBlur stdDeviation="5" result="blur-5"/>
      <feFlood flood-opacity="0.329"/>
      <feComposite operator="in" in2="blur-5"/>
      <feComposite in="SourceGraphic"/>
    </filter>
    <filter id="Ellipse_11" x="109.62" y="175.603" width="40.27" height="40.207" filterUnits="userSpaceOnUse">
      <feOffset dy="10" input="SourceAlpha"/>
      <feGaussianBlur stdDeviation="5" result="blur-6"/>
      <feFlood flood-opacity="0.329"/>
      <feComposite operator="in" in2="blur-6"/>
      <feComposite in="SourceGraphic"/>
    </filter>
    <filter id="Rechteck_31" x="129.065" y="121.891" width="108.231" height="56.894" filterUnits="userSpaceOnUse">
      <feOffset dy="10" input="SourceAlpha"/>
      <feGaussianBlur stdDeviation="5" result="blur-7"/>
      <feFlood flood-opacity="0.451"/>
      <feComposite operator="in" in2="blur-7"/>
      <feComposite in="SourceGraphic"/>
    </filter>
    <filter id="Rechteck_31-2" x="128.788" y="158.59" width="107.929" height="57.161" filterUnits="userSpaceOnUse">
      <feOffset dy="10" input="SourceAlpha"/>
      <feGaussianBlur stdDeviation="5" result="blur-8"/>
      <feFlood flood-opacity="0.451"/>
      <feComposite operator="in" in2="blur-8"/>
      <feComposite in="SourceGraphic"/>
    </filter>
    <filter id="Linie_6" x="96.72" y="92.381" width="232.346" height="24.228" filterUnits="userSpaceOnUse">
      <feOffset dy="3" input="SourceAlpha"/>
      <feGaussianBlur stdDeviation="3" result="blur-9"/>
      <feFlood flood-opacity="0.161"/>
      <feComposite operator="in" in2="blur-9"/>
      <feComposite in="SourceGraphic"/>
    </filter>
    <filter id="Rechteck_42" x="44.753" y="3.187" width="336.131" height="147.673" filterUnits="userSpaceOnUse">
      <feOffset dy="-3" input="SourceAlpha"/>
      <feGaussianBlur stdDeviation="20" result="blur-10"/>
      <feFlood flood-opacity="0.161"/>
      <feComposite operator="in" in2="blur-10"/>
      <feComposite in="SourceGraphic"/>
    </filter>
  </defs>
  <g id="Gruppe_12" data-name="Gruppe 12" transform="translate(0 0)">
    <g transform="matrix(1, 0, 0, 1, 0, 0)" filter="url(#Rechteck_36)">
      <path id="Rechteck_36-2" data-name="Rechteck 36" d="M105.724,102l214.169,2.12L316.92,205.51a4.05,4.05,0,0,1-.332,1.492,4.093,4.093,0,0,1-.823,1.229,3.931,3.931,0,0,1-1.193.84,3.658,3.658,0,0,1-1.441.327l-204.023,3.844a4.1,4.1,0,0,1-1.6-.287,3.98,3.98,0,0,1-1.3-.84,3.89,3.89,0,0,1-1.185-2.834Z" transform="translate(0 0)" fill="#1f242a"/>
    </g>
    <g transform="matrix(1, 0, 0, 1, 0, 0)" filter="url(#Ellipse_7)">
      <path id="Ellipse_7-2" data-name="Ellipse 7" d="M20.219,5.028a5.091,5.091,0,0,1,4.647,7.118,5.149,5.149,0,0,1-4.741,3.1,5.091,5.091,0,0,1-4.661-7.118,5.149,5.149,0,0,1,4.754-3.1Z" transform="translate(110.14 114.64)" fill="#282d32"/>
    </g>
    <g transform="matrix(1, 0, 0, 1, 0, 0)" filter="url(#Ellipse_8)">
      <path id="Ellipse_8-2" data-name="Ellipse 8" d="M19.954,5.024a4.445,4.445,0,0,1,1.814.394,4.54,4.54,0,0,1,1.46,1.055,4.763,4.763,0,0,1,.96,1.557,4.992,4.992,0,0,1,.315,1.9,5.122,5.122,0,0,1-.419,1.9,5.07,5.07,0,0,1-1.045,1.548,4.843,4.843,0,0,1-1.516,1.042,4.571,4.571,0,0,1-1.833.379,4.445,4.445,0,0,1-1.814-.388,4.539,4.539,0,0,1-1.463-1.051,4.761,4.761,0,0,1-.965-1.557A4.991,4.991,0,0,1,15.129,9.9a5.122,5.122,0,0,1,.42-1.9A5.069,5.069,0,0,1,16.6,6.441,4.842,4.842,0,0,1,18.118,5.4,4.569,4.569,0,0,1,19.954,5.024Z" transform="translate(277.05 116.52)" fill="#282d32"/>
    </g>
    <g transform="matrix(1, 0, 0, 1, 0, 0)" filter="url(#Ellipse_9)">
      <path id="Ellipse_9-2" data-name="Ellipse 9" d="M19.924,5.049a4.388,4.388,0,0,1,3.255,1.379,4.6,4.6,0,0,1,.955,1.523,4.862,4.862,0,0,1,.314,1.873,5.1,5.1,0,0,1-1.455,3.425A4.92,4.92,0,0,1,21.486,14.3a4.615,4.615,0,0,1-1.822.4A4.388,4.388,0,0,1,16.4,13.333a4.6,4.6,0,0,1-.96-1.523,4.861,4.861,0,0,1-.317-1.877A5.1,5.1,0,0,1,16.586,6.5,4.919,4.919,0,0,1,18.1,5.448,4.613,4.613,0,0,1,19.924,5.049Z" transform="translate(275.54 173.87)" fill="#282d32"/>
    </g>
    <g transform="matrix(1, 0, 0, 1, 0, 0)" filter="url(#Ellipse_10)">
      <path id="Ellipse_10-2" data-name="Ellipse 10" d="M20.2,5.013a5.075,5.075,0,0,1,1.983.394,4.992,4.992,0,0,1,3.068,4.665,5.075,5.075,0,0,1-.419,1.975,5.183,5.183,0,0,1-4.725,3.119,5.076,5.076,0,0,1-1.983-.388,4.992,4.992,0,0,1-3.082-4.665,5.075,5.075,0,0,1,.419-1.98A5.182,5.182,0,0,1,20.2,5.013Z" transform="translate(109.88 145.25)" fill="#282d32"/>
    </g>
    <g transform="matrix(1, 0, 0, 1, 0, 0)" filter="url(#Ellipse_11)">
      <path id="Ellipse_11-2" data-name="Ellipse 11" d="M20.185,5.053a5.052,5.052,0,0,1,1.977.376,4.955,4.955,0,0,1,1.606,1.064,4.9,4.9,0,0,1,1.453,3.547A5.051,5.051,0,0,1,24.8,12a5.216,5.216,0,0,1-4.71,3.136,5.053,5.053,0,0,1-1.977-.37,4.956,4.956,0,0,1-1.61-1.06,4.9,4.9,0,0,1-1.463-3.551,5.051,5.051,0,0,1,.418-1.971,5.216,5.216,0,0,1,4.724-3.136Z" transform="translate(109.62 175.6)" fill="#282d32"/>
    </g>
    <g id="Input" transform="translate(129.065 121.891)">
      <g transform="matrix(1, 0, 0, 1, -129.07, -121.89)" filter="url(#Rechteck_31)">
        <path id="Rechteck_31-3" data-name="Rechteck 31" d="M18.334,5.011,90.3,5.263a2.845,2.845,0,0,1,2.055.883,2.937,2.937,0,0,1,.609.953,3.01,3.01,0,0,1,.208,1.164l-.387,20.382a3.063,3.063,0,0,1-.9,2.107,3.015,3.015,0,0,1-.941.641,2.906,2.906,0,0,1-1.142.238l-71.771.252a2.986,2.986,0,0,1-3.006-3.026l.222-20.8a3.072,3.072,0,0,1,3.08-3.042Z" transform="translate(129.07 121.89)" fill="rgba(255,255,255,0.04)"/>
      </g>
    </g>
    <g id="Input-2" data-name="Input" transform="translate(128.788 158.59)">
      <g transform="matrix(1, 0, 0, 1, -128.79, -158.59)" filter="url(#Rechteck_31-2)">
        <path id="Rechteck_31-4" data-name="Rechteck 31" d="M18.32,5.462l71.691-.444a2.812,2.812,0,0,1,2.048.857,2.874,2.874,0,0,1,.607.939,2.96,2.96,0,0,1,.207,1.153L92.489,28.19a3.038,3.038,0,0,1-.25,1.152,3.092,3.092,0,0,1-.641.946,3.044,3.044,0,0,1-.937.645,2.923,2.923,0,0,1-1.138.247l-71.5.94a2.989,2.989,0,0,1-1.175-.221,2.927,2.927,0,0,1-1.82-2.752l.22-20.639a3.041,3.041,0,0,1,.251-1.18,3.118,3.118,0,0,1,1.633-1.622A3.06,3.06,0,0,1,18.32,5.462Z" transform="translate(128.79 158.59)" fill="rgba(255,255,255,0.04)"/>
      </g>
    </g>
    <g transform="matrix(1, 0, 0, 1, 0, 0)" filter="url(#Linie_6)">
      <g id="Linie_6-2" data-name="Linie 6" transform="translate(96.72 92.38)" fill="none">
        <path d="M9.013,8.068l214.276,2.207" stroke="none"/>
        <path d="M 223.2317047119141 12.22795295715332 L 8.999998092651367 10.13552188873291 L 9.026893615722656 6.000005722045898 L 223.3462982177734 8.322173118591309 L 223.2317047119141 12.22795295715332 Z" stroke="none" fill="#282d32"/>
      </g>
    </g>
  </g>
  <g transform="matrix(1, 0, 0, 1, 0, 0)" filter="url(#Rechteck_42)">
    <path id="Rechteck_42-2" data-name="Rechteck 42" d="M63.29,63.06l210.045,4.021a2.647,2.647,0,0,1,1.082.253,2.758,2.758,0,0,1,.87.649,2.928,2.928,0,0,1,.571.949,3.064,3.064,0,0,1,.186,1.152l-.518,17.653a3.092,3.092,0,0,1-.253,1.14,3.022,3.022,0,0,1-.625.925,2.855,2.855,0,0,1-.9.618,2.689,2.689,0,0,1-1.093.217L63.123,87.975a3.15,3.15,0,0,1-2.865-1.935,3.1,3.1,0,0,1-.238-1.214l.12-18.7A3.082,3.082,0,0,1,63.29,63.06Z" transform="translate(44.75 3.19)" fill="#1f242a"/>
  </g>
</svg>
