<?xml version="1.0" encoding="utf-8"?>
<!-- Generator: Adobe Illustrator 25.1.0, SVG Export Plug-In . SVG Version: 6.00 Build 0)  -->
<svg version="1.1" id="Layer_1" xmlns="http://www.w3.org/2000/svg" xmlns:xlink="http://www.w3.org/1999/xlink" x="0px" y="0px"
	 viewBox="0 0 22 22" style="enable-background:new 0 0 22 22;" xml:space="preserve">
<g id="Icon_feather-moon" transform="translate(-3.557 -3.5)">
	<path d="M25.5,15.5c-0.2,2.7-1.5,5.3-3.5,7.1c-2,1.9-4.7,2.9-7.4,2.9h-0.4c-2.8-0.1-5.5-1.2-7.5-3.2c-2-2-3.1-4.6-3.2-7.5
		C3.5,12,4.5,9.3,6.3,7.2c1.9-2.1,4.4-3.4,7.2-3.7c0,0,0.1,0,0.1,0c0.4,0,0.7,0.2,0.9,0.5c0.2,0.3,0.2,0.8-0.1,1.1
		c-2,2.7-1.7,6.4,0.7,8.8c1.3,1.3,3,2,4.8,2c1.5,0,2.9-0.5,4-1.3c0.2-0.1,0.4-0.2,0.6-0.2c0.2,0,0.3,0,0.5,0.1
		C25.4,14.7,25.6,15.1,25.5,15.5z"/>
</g>
</svg>
