<svg xmlns="http://www.w3.org/2000/svg" width="29.971" height="21.073" viewBox="0 0 29.971 21.073">
  <path id="Icon_awesome-youtube" data-name="Icon awesome-youtube" d="M30.395,7.8a3.766,3.766,0,0,0-2.65-2.667C25.408,4.5,16.035,4.5,16.035,4.5s-9.372,0-11.709.63A3.766,3.766,0,0,0,1.676,7.8a39.505,39.505,0,0,0-.626,7.261,39.505,39.505,0,0,0,.626,7.261,3.71,3.71,0,0,0,2.65,2.624c2.337.63,11.709.63,11.709.63s9.372,0,11.709-.63a3.71,3.71,0,0,0,2.65-2.624,39.505,39.505,0,0,0,.626-7.261A39.505,39.505,0,0,0,30.395,7.8ZM12.97,19.514V10.6L20.8,15.058,12.97,19.514Z" transform="translate(-1.05 -4.5)" fill="rgba(255,255,255,0.7)"/>
</svg>
