<svg xmlns="http://www.w3.org/2000/svg" width="26.837" height="18.87" viewBox="0 0 26.837 18.87">
  <path id="Icon_awesome-youtube" data-name="Icon awesome-youtube" d="M26.276,2.952A3.372,3.372,0,0,0,23.9.564C21.811,0,13.419,0,13.419,0S5.026,0,2.933.564A3.372,3.372,0,0,0,.561,2.952,35.374,35.374,0,0,0,0,9.454a35.375,35.375,0,0,0,.561,6.5,3.322,3.322,0,0,0,2.373,2.35c2.093.564,10.485.564,10.485.564s8.392,0,10.485-.564a3.322,3.322,0,0,0,2.373-2.35,35.374,35.374,0,0,0,.561-6.5,35.374,35.374,0,0,0-.561-6.5Zm-15.6,10.492V5.464l7.014,3.99-7.014,3.99Z" transform="translate(26.837 18.87) rotate(180)" fill="#fff"/>
</svg>
