<svg xmlns="http://www.w3.org/2000/svg" width="23.846" height="23.846" viewBox="0 0 23.846 23.846">
  <path id="Icon_ionic-ios-arrow-round-up" data-name="Icon ionic-ios-arrow-round-up" d="M13.234,7.329a.918.918,0,0,1-1.293.007L7.662,3.071V19.324a.914.914,0,0,1-1.827,0V3.071L1.556,7.343A.925.925,0,0,1,.263,7.336.91.91,0,0,1,.27,6.05L6.1.26h0A1.026,1.026,0,0,1,6.39.07.872.872,0,0,1,6.742,0a.916.916,0,0,1,.639.26l5.832,5.79A.9.9,0,0,1,13.234,7.329Z" transform="translate(14.305) rotate(45)" fill="#0c1115"/>
</svg>
