<svg xmlns="http://www.w3.org/2000/svg" width="23.294" height="23.294" viewBox="0 0 23.294 23.294">
  <g id="Icon_feather-sun" data-name="Icon feather-sun" transform="translate(0.75 0.75)">
    <path id="Pfad_247" data-name="Pfad 247" d="M20.406,15.453A4.953,4.953,0,1,1,15.453,10.5,4.953,4.953,0,0,1,20.406,15.453Z" transform="translate(-4.556 -4.556)" fill="none" stroke="rgba(255,255,255,0.7)" stroke-linecap="round" stroke-linejoin="round" stroke-width="1.5"/>
    <path id="Pfad_248" data-name="Pfad 248" d="M18,1.5V3.481" transform="translate(-7.103 -1.5)" fill="none" stroke="rgba(255,255,255,0.7)" stroke-linecap="round" stroke-linejoin="round" stroke-width="1.5"/>
    <path id="Pfad_249" data-name="Pfad 249" d="M18,31.5v1.981" transform="translate(-7.103 -11.687)" fill="none" stroke="rgba(255,255,255,0.7)" stroke-linecap="round" stroke-linejoin="round" stroke-width="1.5"/>
    <path id="Pfad_250" data-name="Pfad 250" d="M6.33,6.33,7.737,7.737" transform="translate(-3.14 -3.14)" fill="none" stroke="rgba(255,255,255,0.7)" stroke-linecap="round" stroke-linejoin="round" stroke-width="1.5"/>
    <path id="Pfad_251" data-name="Pfad 251" d="M27.54,27.54l1.407,1.407" transform="translate(-10.343 -10.342)" fill="none" stroke="rgba(255,255,255,0.7)" stroke-linecap="round" stroke-linejoin="round" stroke-width="1.5"/>
    <path id="Pfad_252" data-name="Pfad 252" d="M1.5,18H3.481" transform="translate(-1.5 -7.103)" fill="none" stroke="rgba(255,255,255,0.7)" stroke-linecap="round" stroke-linejoin="round" stroke-width="1.5"/>
    <path id="Pfad_253" data-name="Pfad 253" d="M31.5,18h1.981" transform="translate(-11.687 -7.103)" fill="none" stroke="rgba(255,255,255,0.7)" stroke-linecap="round" stroke-linejoin="round" stroke-width="1.5"/>
    <path id="Pfad_254" data-name="Pfad 254" d="M6.33,28.947,7.737,27.54" transform="translate(-3.14 -10.342)" fill="none" stroke="rgba(255,255,255,0.7)" stroke-linecap="round" stroke-linejoin="round" stroke-width="1.5"/>
    <path id="Pfad_255" data-name="Pfad 255" d="M27.54,7.737,28.947,6.33" transform="translate(-10.343 -3.14)" fill="none" stroke="rgba(255,255,255,0.7)" stroke-linecap="round" stroke-linejoin="round" stroke-width="1.5"/>
  </g>
</svg>
