<svg id="_029-verify" data-name="029-verify" xmlns="http://www.w3.org/2000/svg" xmlns:xlink="http://www.w3.org/1999/xlink" width="55" height="55" viewBox="0 0 55 55">
  <defs>
    <linearGradient id="linear-gradient" x1="0.5" y1="1" x2="0.5" gradientUnits="objectBoundingBox">
      <stop offset="0" stop-color="#00b59c"/>
      <stop offset="1" stop-color="#9cffac"/>
    </linearGradient>
    <linearGradient id="linear-gradient-2" x1="0.5" y1="1" x2="0.5" gradientUnits="objectBoundingBox">
      <stop offset="0" stop-color="#c3ffe8"/>
      <stop offset="0.997" stop-color="#f0fff4"/>
    </linearGradient>
  </defs>
  <g id="Gruppe_431" data-name="Gruppe 431" transform="translate(0 0)">
    <g id="Gruppe_430" data-name="Gruppe 430">
      <path id="Pfad_201" data-name="Pfad 201" d="M40.372,27.487a12.867,12.867,0,0,0-2.487.251l.754-1.82A1.612,1.612,0,0,0,38,23.936l-2.745-1.713a16.01,16.01,0,0,0,.282-2.788,15.972,15.972,0,0,0-.267-2.637L38,15.094a1.612,1.612,0,0,0,.635-1.983L37.216,9.679a1.611,1.611,0,0,0-1.85-.953L32.014,9.5a16.816,16.816,0,0,0-2.634-2.744l.762-3.294a1.612,1.612,0,0,0-.953-1.851L25.76.125a1.6,1.6,0,0,0-1.982.634L22.112,3.492a16,16,0,0,0-2.677-.271,15.984,15.984,0,0,0-2.68.271L15.091.76A1.609,1.609,0,0,0,13.109.125L9.68,1.545a1.7,1.7,0,0,0-.953,1.919l.761,3.294A17.491,17.491,0,0,0,6.747,9.5L3.394,8.726a1.61,1.61,0,0,0-1.85.953L.123,13.111a1.611,1.611,0,0,0,.635,1.983l2.729,1.7a15.954,15.954,0,0,0-.267,2.638A15.99,15.99,0,0,0,3.5,22.223L.758,23.936a1.612,1.612,0,0,0-.635,1.983l1.422,3.432a1.613,1.613,0,0,0,1.85.953l3.464-.8A16.849,16.849,0,0,0,9.5,32.015l-.775,3.354a1.611,1.611,0,0,0,.953,1.85l3.429,1.42a1.61,1.61,0,0,0,1.982-.634L16.8,35.274a15.991,15.991,0,0,0,2.637.266,15.975,15.975,0,0,0,2.639-.267l1.7,2.73a1.609,1.609,0,0,0,1.982.635l1.986-.823A12.971,12.971,0,0,0,40.372,53.364a12.938,12.938,0,1,0,0-25.876Z" transform="translate(0 0)" fill="url(#linear-gradient)"/>
    </g>
  </g>
  <g id="Gruppe_433" data-name="Gruppe 433" transform="translate(10.707 10.707)">
    <g id="Gruppe_432" data-name="Gruppe 432">
      <path id="Pfad_202" data-name="Pfad 202" d="M135.456,120.728a14.783,14.783,0,0,0,0,29.565,14.783,14.783,0,1,0,0-29.565Zm6.066,12.612-6.546,6.546a1.636,1.636,0,0,1-2.314,0l-3.273-3.273A1.636,1.636,0,1,1,131.7,134.3l2.116,2.116,5.389-5.389a1.636,1.636,0,1,1,2.314,2.314ZM114.182,106a8.182,8.182,0,1,0,8.182,8.182A8.191,8.191,0,0,0,114.182,106Z" transform="translate(-106 -106)" fill="url(#linear-gradient-2)"/>
    </g>
  </g>
</svg>
