<?xml version="1.0" encoding="utf-8"?>
<!-- Generator: Adobe Illustrator 25.1.0, SVG Export Plug-In . SVG Version: 6.00 Build 0)  -->
<svg version="1.1" id="Layer_1" xmlns="http://www.w3.org/2000/svg" xmlns:xlink="http://www.w3.org/1999/xlink" x="0px" y="0px"
	 viewBox="0 0 500 500" style="enable-background:new 0 0 500 500;" xml:space="preserve">
<style type="text/css">
	.st0{fill-rule:evenodd;clip-rule:evenodd;fill:#0001F2;}
</style>
<g>
	<g id="svg_7">
		<path id="svg_6" class="st0" d="M0,43.9c0-24,19.5-43.5,43.5-43.5c0,0,0,0,0,0h109.8c16.9,0,32.3,9.8,39.4,25.1L373,412h38.5V87.4
			H359v-87h96c24,0,43.5,19.5,43.5,43.5v411.6c0,24-19.5,43.5-43.5,43.5H345.3c-16.9,0-32.3-9.8-39.4-25.1L125.5,87.4H87V412h52.5
			v87h-96C19.4,499,0,479.6,0,455.5C0,455.5,0,43.9,0,43.9z"/>
	</g>
</g>
</svg>
